<?xml version="1.0" ?><!DOCTYPE svg  PUBLIC '-//W3C//DTD SVG 1.1//EN'  'http://www.w3.org/Graphics/SVG/1.1/DTD/svg11.dtd'><svg enable-background="new 0 0 512 512" height="512px" id="Layer_1" version="1.1" viewBox="0 0 512 512" width="512px" xml:space="preserve" xmlns="http://www.w3.org/2000/svg" xmlns:xlink="http://www.w3.org/1999/xlink"><g><polyline fill="#3E4041" points="0,512 512,512 512,0 0,0 0,512  "/><polyline fill="#010101" opacity="0.102" points="327,160 180,162 158,266 284,512 512,512 512,435 327,160  "/><path d="M295.802,226.195c-0.075,0.348-0.166,0.789-0.227,1.081l-2.63,12.306l2.767-12.965L295.802,226.195" fill="#5DA3C2"/><polyline fill="#5DA3C2" points="217.02,234.431 215.568,239.573 217.02,234.433 217.02,234.431  "/><path d="M324.188,125c3.903,8.864,6.431,23.582,2.657,34.362c15.429,13.17,20.733,45.195,13.285,71.363   c21.987,1.68,48.18-0.804,65.086,5.943c-15.805-2.031-37.391-6.018-57.774-4.63c-3.863,0.262-9.585-0.147-9.304,5.286   c23.597,1.854,47.045,3.871,66.42,9.916c-19.214-3.14-42.542-7.917-66.42-8.586c-9.864,19.465-29.716,29.029-57.119,31.045   c2.945,6.409,8.587,8.85,9.969,19.162c2.052,15.403-3.219,37.965,1.981,48.231c2.495,4.918,6.56,5.051,9.304,9.255   c-6.713,7.944-23.351-0.889-25.246-9.255c-3.246-14.327,4.945-36.539-3.982-46.25c0.632,15.625-3.692,37.574,0.666,51.535   c1.72,5.491,6.677,7.608,5.316,12.559c-31.196,3.168-18.164-40.378-23.259-66.075c-4.705,0.333-2.64,7.048-2.652,9.912   c-0.138,25.1,5.135,59.521-21.917,56.163c-0.795-5.272,3.629-7.067,5.31-11.887c4.938-14.122-0.924-35.163,1.341-52.207   c-10.326,7.784,1.082,34.96-5.315,48.891c-3.688,8.02-15.564,11.509-24.575,7.93c1.172-5.973,7.342-5.007,9.955-10.57   c3.654-7.758,0.026-18.927,1.336-30.392c-19.116,3.813-33.938-0.553-41.189-12.557c-3.244-5.388-4.052-11.742-7.975-16.516   c-3.901-4.777-10.138-5.418-11.948-11.888c23.669-5.695,24.575,24.356,45.835,25.102c6.515,0.235,9.902-1.883,15.936-3.298   c1.686-7.581,5.303-13.23,10.625-17.189c-26.446-3.621-48.29-11.855-58.448-31.701c-24.047,1.184-46.048,4.395-66.427,9.242   c18.496-6.719,41.312-9.127,65.763-9.916c-1.44-8.66-14.072-6.278-21.917-5.942c-14.573,0.642-32.92,2.454-44.504,4.63   c16.796-5.989,40.355-5.24,63.105-5.287c-6.959-21.815-4.548-56.471,10.626-69.378c-4.3-10.836-2.965-28.563,2.657-37.004   c16.94,0.761,27.215,8.149,37.86,15.202c13.198-3.756,27.077-5.623,45.162-4.629c7.609,0.423,15.52,3.84,21.246,3.299   c5.623-0.525,11.819-6.833,17.272-9.243C310.044,126.491,316.058,125.293,324.188,125" fill="#FFFFFF"/></g></svg>