<?xml version="1.0" encoding="UTF-8" standalone="no"?>
<!-- Created with Inkscape (http://www.inkscape.org/) -->

<svg
   xmlns:dc="http://purl.org/dc/elements/1.1/"
   xmlns:cc="http://creativecommons.org/ns#"
   xmlns:rdf="http://www.w3.org/1999/02/22-rdf-syntax-ns#"
   xmlns:svg="http://www.w3.org/2000/svg"
   xmlns="http://www.w3.org/2000/svg"
   xmlns:sodipodi="http://sodipodi.sourceforge.net/DTD/sodipodi-0.dtd"
   xmlns:inkscape="http://www.inkscape.org/namespaces/inkscape"
   width="800px"
   height="600px"
   id="svg3753"
   version="1.1"
   inkscape:version="0.48.4 r9939"
   sodipodi:docname="maptimelex_20141119_card1.svg">
  <defs
     id="defs3755" />
  <sodipodi:namedview
     id="base"
     pagecolor="#ffffff"
     bordercolor="#666666"
     borderopacity="1.0"
     inkscape:pageopacity="0.0"
     inkscape:pageshadow="2"
     inkscape:zoom="0.6"
     inkscape:cx="165"
     inkscape:cy="300"
     inkscape:current-layer="layer2"
     inkscape:document-units="px"
     showgrid="false"
     showguides="true"
     inkscape:guide-bbox="true"
     inkscape:window-width="1366"
     inkscape:window-height="663"
     inkscape:window-x="-8"
     inkscape:window-y="-8"
     inkscape:window-maximized="1">
    <sodipodi:guide
       orientation="1,0"
       position="25,300"
       id="guide3761" />
    <sodipodi:guide
       orientation="1,0"
       position="775,300"
       id="guide3763" />
    <sodipodi:guide
       orientation="0,1"
       position="400,575"
       id="guide3765" />
    <sodipodi:guide
       orientation="0,1"
       position="400,25"
       id="guide3767" />
    <sodipodi:guide
       orientation="1,0"
       position="0,300"
       id="guide3769" />
    <sodipodi:guide
       orientation="0,1"
       position="400,600"
       id="guide3773" />
    <sodipodi:guide
       orientation="1,0"
       position="800,300"
       id="guide3777" />
    <sodipodi:guide
       orientation="0,1"
       position="400,0"
       id="guide3779" />
  </sodipodi:namedview>
  <metadata
     id="metadata3758">
    <rdf:RDF>
      <cc:Work
         rdf:about="">
        <dc:format>image/svg+xml</dc:format>
        <dc:type
           rdf:resource="http://purl.org/dc/dcmitype/StillImage" />
        <dc:title></dc:title>
      </cc:Work>
    </rdf:RDF>
  </metadata>
  <g
     id="layer1"
     inkscape:label="bg"
     inkscape:groupmode="layer"
     sodipodi:insensitive="true">
    <rect
       style="color:#000000;fill:#e74c3c;fill-opacity:1;fill-rule:nonzero;stroke:none;stroke-width:1.25;marker:none;visibility:visible;display:inline;overflow:visible;enable-background:accumulate"
       id="rect4289"
       width="800"
       height="600"
       x="0"
       y="0" />
  </g>
  <g
     inkscape:groupmode="layer"
     id="layer2"
     inkscape:label="text">
    <g
       style="font-size:48px;font-style:normal;font-variant:normal;font-weight:bold;font-stretch:normal;text-align:center;line-height:125%;letter-spacing:0px;word-spacing:0px;writing-mode:lr-tb;text-anchor:middle;fill:#ffffff;fill-opacity:0.94117647;stroke:none;font-family:Open Sans;-inkscape-font-specification:Open Sans Bold"
       id="text4292"
       transform="matrix(1.3985485,0,0,1.3985485,-142.25309,-61.281458)">
      <path
         d="m 122.74478,100.00001 0,-34.265627 7.26563,0 0,34.265627 z"
         id="path4297"
         inkscape:connector-curvature="0"
         style="fill:#ffffff;fill-opacity:0.94117647" />
      <path
         d="m 162.30728,100.00001 -7.14844,0 0,-15.30469 c -2e-5,-1.890608 -0.33595,-3.308575 -1.00781,-4.253906 -0.67189,-0.945292 -1.7422,-1.417948 -3.21094,-1.417969 -2.00001,2.1e-5 -3.44532,0.667989 -4.33593,2.003906 -0.89064,1.335956 -1.33595,3.550797 -1.33594,6.644532 l 0,12.328127 -7.14844,0 0,-26.203127 5.46094,0 0.96094,3.351562 0.39843,0 c 0.79687,-1.265601 1.89452,-2.222631 3.29297,-2.871094 1.39842,-0.648411 2.98827,-0.972629 4.76953,-0.972656 3.04686,2.7e-5 5.35936,0.824245 6.9375,2.472656 1.5781,1.64846 2.36716,4.027364 2.36719,7.136719 z"
         id="path4299"
         inkscape:connector-curvature="0"
         style="fill:#ffffff;fill-opacity:0.94117647" />
      <path
         d="m 180.75259,94.773445 c 1.24999,5e-6 2.74999,-0.273432 4.5,-0.820312 l 0,5.320312 c -1.78126,0.796875 -3.96876,1.195315 -6.5625,1.195315 -2.85938,0 -4.94141,-0.722658 -6.24609,-2.167971 -1.30469,-1.445309 -1.95704,-3.613276 -1.95703,-6.503906 l 0,-12.632813 -3.42188,0 0,-3.023437 3.9375,-2.390625 2.0625,-5.53125 4.57032,0 0,5.578125 7.33593,0 0,5.367187 -7.33593,0 0,12.632813 c -2e-5,1.015632 0.28514,1.765631 0.85547,2.25 0.57029,0.48438 1.3242,0.726567 2.26171,0.726562 z"
         id="path4301"
         inkscape:connector-curvature="0"
         style="fill:#ffffff;fill-opacity:0.94117647" />
      <path
         d="m 205.15103,73.304695 c 0.96873,2.7e-5 1.77342,0.07034 2.41406,0.210938 l -0.53906,6.703125 c -0.57814,-0.15623 -1.28127,-0.234355 -2.10937,-0.234375 -2.28127,2e-5 -4.05861,0.585957 -5.33203,1.757812 -1.27345,1.171892 -1.91017,2.812516 -1.91016,4.921875 l 0,13.33594 -7.14844,0 0,-26.203127 5.41406,0 1.05469,4.40625 0.35156,0 c 0.81249,-1.468727 1.91015,-2.65232 3.29297,-3.550782 1.3828,-0.898411 2.8867,-1.347629 4.51172,-1.347656 z"
         id="path4303"
         inkscape:connector-curvature="0"
         style="fill:#ffffff;fill-opacity:0.94117647" />
      <path
         d="m 218.06509,86.85157 c -1e-5,2.593761 0.42578,4.554696 1.27735,5.882813 0.85155,1.328131 2.23827,1.992192 4.16015,1.992187 1.90624,5e-6 3.27733,-0.66015 4.11329,-1.980469 0.83591,-1.320304 1.25388,-3.285145 1.2539,-5.894531 -2e-5,-2.593734 -0.42189,-4.539045 -1.26562,-5.835937 -0.84377,-1.296855 -2.22658,-1.945292 -4.14844,-1.945313 -1.90626,2.1e-5 -3.28126,0.644552 -4.125,1.933594 -0.84376,1.28908 -1.26564,3.238297 -1.26563,5.847656 z m 18.11719,0 c -3e-5,4.265634 -1.12502,7.601568 -3.375,10.007813 -2.25002,2.40625 -5.38283,3.609377 -9.39844,3.609377 -2.51563,0 -4.73438,-0.550784 -6.65625,-1.652346 -1.92188,-1.10156 -3.39844,-2.68359 -4.42968,-4.746094 -1.03126,-2.062492 -1.54688,-4.468739 -1.54688,-7.21875 0,-4.281232 1.11719,-7.609354 3.35156,-9.984375 2.23437,-2.374974 5.37499,-3.562473 9.42188,-3.5625 2.51561,2.7e-5 4.73435,0.546901 6.65625,1.640625 1.92185,1.093774 3.39841,2.664085 4.42969,4.710938 1.03122,2.046893 1.54684,4.445328 1.54687,7.195312 z"
         id="path4305"
         inkscape:connector-curvature="0"
         style="fill:#ffffff;fill-opacity:0.94117647" />
      <path
         d="m 265.59634,94.773445 c 1.24999,5e-6 2.74999,-0.273432 4.5,-0.820312 l 0,5.320312 c -1.78126,0.796875 -3.96876,1.195315 -6.5625,1.195315 -2.85938,0 -4.94141,-0.722658 -6.24609,-2.167971 -1.30469,-1.445309 -1.95704,-3.613276 -1.95703,-6.503906 l 0,-12.632813 -3.42188,0 0,-3.023437 3.9375,-2.390625 2.0625,-5.53125 4.57032,0 0,5.578125 7.33593,0 0,5.367187 -7.33593,0 0,12.632813 c -2e-5,1.015632 0.28514,1.765631 0.85547,2.25 0.57029,0.48438 1.3242,0.726567 2.26171,0.726562 z"
         id="path4307"
         inkscape:connector-curvature="0"
         style="fill:#ffffff;fill-opacity:0.94117647" />
      <path
         d="m 281.06509,86.85157 c -10e-6,2.593761 0.42578,4.554696 1.27735,5.882813 0.85155,1.328131 2.23827,1.992192 4.16015,1.992187 1.90624,5e-6 3.27733,-0.66015 4.11329,-1.980469 0.83591,-1.320304 1.25388,-3.285145 1.2539,-5.894531 -2e-5,-2.593734 -0.42189,-4.539045 -1.26562,-5.835937 -0.84377,-1.296855 -2.22658,-1.945292 -4.14844,-1.945313 -1.90626,2.1e-5 -3.28126,0.644552 -4.125,1.933594 -0.84376,1.28908 -1.26564,3.238297 -1.26563,5.847656 z m 18.11719,0 c -3e-5,4.265634 -1.12502,7.601568 -3.375,10.007813 -2.25002,2.40625 -5.38283,3.609377 -9.39844,3.609377 -2.51563,0 -4.73438,-0.550784 -6.65625,-1.652346 -1.92188,-1.10156 -3.39844,-2.68359 -4.42968,-4.746094 -1.03126,-2.062492 -1.54688,-4.468739 -1.54688,-7.21875 0,-4.281232 1.11719,-7.609354 3.35156,-9.984375 2.23437,-2.374974 5.37499,-3.562473 9.42188,-3.5625 2.51561,2.7e-5 4.73435,0.546901 6.65625,1.640625 1.92185,1.093774 3.39841,2.664085 4.42969,4.710938 1.03122,2.046893 1.54684,4.445328 1.54687,7.195312 z"
         id="path4309"
         inkscape:connector-curvature="0"
         style="fill:#ffffff;fill-opacity:0.94117647" />
      <path
         d="m 340.36197,73.796883 0,3.632812 -4.10156,1.054688 c 0.74997,1.171895 1.12497,2.484394 1.125,3.9375 -3e-5,2.812514 -0.98049,5.003918 -2.94141,6.574218 -1.96096,1.570322 -4.68361,2.355478 -8.16797,2.355469 l -1.28906,-0.07031 -1.05469,-0.117188 c -0.73438,0.562508 -1.10157,1.187508 -1.10156,1.875 -10e-6,1.031256 1.31249,1.546881 3.9375,1.546875 l 4.45312,0 c 2.87498,6e-6 5.06639,0.617192 6.57422,1.851563 1.50779,1.234377 2.2617,3.046875 2.26172,5.4375 -2e-5,3.06249 -1.27737,5.43749 -3.83203,7.125 -2.55471,1.68749 -6.22267,2.53124 -11.00391,2.53125 -3.65625,-1e-5 -6.44922,-0.63673 -8.3789,-1.91016 -1.92969,-1.27344 -2.89453,-3.0586 -2.89453,-5.35547 0,-1.57813 0.49218,-2.89844 1.47656,-3.96093 0.98437,-1.062502 2.42968,-1.820314 4.33594,-2.27344 -0.73438,-0.312498 -1.37501,-0.824216 -1.92188,-1.535157 -0.54688,-0.710933 -0.82031,-1.464838 -0.82031,-2.261718 0,-0.999994 0.28906,-1.832024 0.86719,-2.496094 0.57812,-0.664054 1.41405,-1.316397 2.50781,-1.957031 -1.37501,-0.59374 -2.46485,-1.546864 -3.26953,-2.859375 -0.80469,-1.312486 -1.20704,-2.859359 -1.20703,-4.640625 -10e-6,-2.859355 0.92968,-5.07029 2.78906,-6.632813 1.85937,-1.562474 4.51561,-2.343723 7.96875,-2.34375 0.73436,2.7e-5 1.60545,0.06643 2.61328,0.199219 1.0078,0.132839 1.65233,0.230495 1.93359,0.292969 z m -20.22656,29.906247 c -10e-6,0.98437 0.47265,1.75781 1.41797,2.32032 0.9453,0.56249 2.26952,0.84374 3.97265,0.84375 2.56249,-1e-5 4.5703,-0.35157 6.02344,-1.05469 1.4531,-0.70313 2.17967,-1.66407 2.17969,-2.88281 -2e-5,-0.98438 -0.42971,-1.66407 -1.28907,-2.03907 -0.85939,-0.375 -2.18751,-0.5625 -3.98437,-0.5625 l -3.70313,0 c -1.31251,0 -2.41016,0.3086 -3.29296,0.92578 -0.88282,0.61719 -1.32423,1.43359 -1.32422,2.44922 z m 2.60156,-21.328122 c -10e-6,1.421891 0.32421,2.54689 0.97266,3.375 0.64842,0.828138 1.6367,1.2422 2.96484,1.242187 1.34373,1.3e-5 2.32811,-0.414049 2.95312,-1.242187 0.62499,-0.82811 0.93749,-1.953109 0.9375,-3.375 -10e-6,-3.15623 -1.29689,-4.734353 -3.89062,-4.734375 -2.62501,2.2e-5 -3.93751,1.578145 -3.9375,4.734375 z"
         id="path4311"
         inkscape:connector-curvature="0"
         style="fill:#ffffff;fill-opacity:0.94117647" />
      <path
         d="m 344.34634,67.023445 c 0,-2.32809 1.29687,-3.492151 3.89063,-3.492187 2.59374,3.6e-5 3.89061,1.164097 3.89062,3.492187 -10e-6,1.109407 -0.32423,1.972687 -0.97265,2.589844 -0.64845,0.617217 -1.6211,0.925811 -2.91797,0.925781 -2.59376,3e-5 -3.89063,-1.171844 -3.89063,-3.515625 z m 7.45313,32.976565 -7.14844,0 0,-26.203127 7.14844,0 z"
         id="path4313"
         inkscape:connector-curvature="0"
         style="fill:#ffffff;fill-opacity:0.94117647" />
      <path
         d="m 370.31509,94.773445 c 1.24999,5e-6 2.74999,-0.273432 4.5,-0.820312 l 0,5.320312 c -1.78126,0.796875 -3.96876,1.195315 -6.5625,1.195315 -2.85938,0 -4.94141,-0.722658 -6.24609,-2.167971 -1.30469,-1.445309 -1.95704,-3.613276 -1.95703,-6.503906 l 0,-12.632813 -3.42188,0 0,-3.023437 3.9375,-2.390625 2.0625,-5.53125 4.57032,0 0,5.578125 7.33593,0 0,5.367187 -7.33593,0 0,12.632813 c -2e-5,1.015632 0.28514,1.765631 0.85547,2.25 0.57029,0.48438 1.3242,0.726567 2.26171,0.726562 z"
         id="path4315"
         inkscape:connector-curvature="0"
         style="fill:#ffffff;fill-opacity:0.94117647" />
      <path
         d="m 409.19791,100.00001 -1.38282,-3.562502 -0.1875,0 c -1.20314,1.515627 -2.44142,2.566407 -3.71484,3.152343 -1.27345,0.585939 -2.93361,0.878909 -4.98047,0.878909 -2.51563,0 -4.4961,-0.718752 -5.9414,-2.156252 -1.44532,-1.437497 -2.16798,-3.48437 -2.16797,-6.140625 -10e-6,-2.78124 0.97265,-4.832019 2.91797,-6.152344 1.9453,-1.320297 4.87889,-2.050765 8.80078,-2.191406 l 4.54687,-0.140625 0,-1.148438 c -2e-5,-2.65623 -1.35939,-3.984353 -4.07812,-3.984375 -2.09377,2.2e-5 -4.5547,0.632833 -7.38282,1.898438 l -2.36718,-4.828125 c 3.01561,-1.578099 6.35936,-2.367161 10.03125,-2.367188 3.5156,2.7e-5 6.21091,0.765651 8.08593,2.296875 1.87498,1.531273 2.81248,3.859396 2.8125,6.984375 l 0,17.46094 z m -2.10938,-12.140627 -2.76562,0.09375 c -2.07814,0.06251 -3.62502,0.437511 -4.64063,1.125 -1.01563,0.68751 -1.52345,1.734384 -1.52344,3.140625 -10e-6,2.01563 1.15624,3.023442 3.46875,3.023437 1.65624,5e-6 2.98046,-0.476557 3.97266,-1.429687 0.99217,-0.953118 1.48826,-2.218742 1.48828,-3.796875 z"
         id="path4317"
         inkscape:connector-curvature="0"
         style="fill:#ffffff;fill-opacity:0.94117647" />
      <path
         d="m 445.71353,100.00001 -7.14844,0 0,-15.30469 c -2e-5,-1.890608 -0.33595,-3.308575 -1.00781,-4.253906 -0.67189,-0.945292 -1.7422,-1.417948 -3.21094,-1.417969 -2.00001,2.1e-5 -3.44532,0.667989 -4.33593,2.003906 -0.89064,1.335956 -1.33595,3.550797 -1.33594,6.644532 l 0,12.328127 -7.14844,0 0,-26.203127 5.46094,0 0.96094,3.351562 0.39843,0 c 0.79687,-1.265601 1.89452,-2.222631 3.29297,-2.871094 1.39842,-0.648411 2.98827,-0.972629 4.76953,-0.972656 3.04686,2.7e-5 5.35936,0.824245 6.9375,2.472656 1.5781,1.64846 2.36716,4.027364 2.36719,7.136719 z"
         id="path4319"
         inkscape:connector-curvature="0"
         style="fill:#ffffff;fill-opacity:0.94117647" />
      <path
         d="m 461.41666,100.46876 c -3.07814,0 -5.4961,-1.195314 -7.25391,-3.58594 -1.75782,-2.390619 -2.63672,-5.703116 -2.63672,-9.9375 0,-4.296858 0.89453,-7.64451 2.6836,-10.042969 1.78905,-2.398412 4.25389,-3.597629 7.39453,-3.597656 3.29686,2.7e-5 5.81248,1.281276 7.54687,3.84375 l 0.23438,0 c -0.3594,-1.9531 -0.53909,-3.695286 -0.53907,-5.226562 l 0,-8.390625 7.17188,0 0,36.468752 -5.48438,0 -1.38281,-3.39844 -0.30469,0 c -1.62501,2.578126 -4.10157,3.86719 -7.42968,3.86719 z m 2.50781,-5.695315 c 1.82811,5e-6 3.16795,-0.531244 4.01953,-1.59375 0.85154,-1.062492 1.31639,-2.867178 1.39453,-5.414062 l 0,-0.773438 c -2e-5,-2.812484 -0.43361,-4.828107 -1.30078,-6.046875 -0.86721,-1.21873 -2.27736,-1.828104 -4.23047,-1.828125 -1.59376,2.1e-5 -2.83204,0.675802 -3.71484,2.027344 -0.88282,1.35158 -1.32423,3.316422 -1.32422,5.894531 -10e-6,2.578136 0.4453,4.511727 1.33594,5.800781 0.89061,1.289069 2.16405,1.933599 3.82031,1.933594 z"
         id="path4321"
         inkscape:connector-curvature="0"
         style="fill:#ffffff;fill-opacity:0.94117647" />
      <path
         d="m 509.53384,80.75782 13.59375,0 0,17.765625 c -2.20315,0.718751 -4.27737,1.222657 -6.22265,1.511715 -1.94534,0.28907 -3.93362,0.4336 -5.96485,0.4336 -5.17188,0 -9.1211,-1.519533 -11.84765,-4.558596 -2.72657,-3.039055 -4.08985,-7.402332 -4.08985,-13.089844 0,-5.531227 1.58203,-9.843723 4.7461,-12.9375 3.16405,-3.093717 7.55076,-4.64059 13.16015,-4.640625 3.5156,3.5e-5 6.90623,0.703159 10.17188,2.109375 l -2.41406,5.8125 c -2.50003,-1.249972 -5.10159,-1.874971 -7.80469,-1.875 -3.14064,2.9e-5 -5.65627,1.054715 -7.54688,3.164063 -1.89063,2.109398 -2.83594,4.945333 -2.83593,8.507812 -10e-6,3.718763 0.7617,6.558604 2.28515,8.519531 1.52343,1.960944 3.73827,2.941412 6.64453,2.941407 1.51561,5e-6 3.05467,-0.156245 4.61719,-0.46875 l 0,-7.148438 -6.49219,0 z"
         id="path4323"
         inkscape:connector-curvature="0"
         style="fill:#ffffff;fill-opacity:0.94117647" />
      <path
         d="m 530.44009,67.023445 c 0,-2.32809 1.29687,-3.492151 3.89063,-3.492187 2.59374,3.6e-5 3.89061,1.164097 3.89062,3.492187 -1e-5,1.109407 -0.32423,1.972687 -0.97265,2.589844 -0.64845,0.617217 -1.6211,0.925811 -2.91797,0.925781 -2.59376,3e-5 -3.89063,-1.171844 -3.89063,-3.515625 z m 7.45313,32.976565 -7.14844,0 0,-26.203127 7.14844,0 z"
         id="path4325"
         inkscape:connector-curvature="0"
         style="fill:#ffffff;fill-opacity:0.94117647" />
      <path
         d="m 556.40884,94.773445 c 1.24999,5e-6 2.74999,-0.273432 4.5,-0.820312 l 0,5.320312 c -1.78126,0.796875 -3.96876,1.195315 -6.5625,1.195315 -2.85938,0 -4.94141,-0.722658 -6.24609,-2.167971 -1.30469,-1.445309 -1.95704,-3.613276 -1.95703,-6.503906 l 0,-12.632813 -3.42188,0 0,-3.023437 3.9375,-2.390625 2.0625,-5.53125 4.57032,0 0,5.578125 7.33593,0 0,5.367187 -7.33593,0 0,12.632813 c -2e-5,1.015632 0.28514,1.765631 0.85547,2.25 0.57029,0.48438 1.3242,0.726567 2.26171,0.726562 z"
         id="path4327"
         inkscape:connector-curvature="0"
         style="fill:#ffffff;fill-opacity:0.94117647" />
      <path
         d="m 590.36978,100.00001 -7.14844,0 0,-15.30469 c -2e-5,-3.781231 -1.40627,-5.671854 -4.21875,-5.671875 -2.00001,2.1e-5 -3.44532,0.679708 -4.33593,2.039063 -0.89064,1.359392 -1.33595,3.562515 -1.33594,6.609375 l 0,12.328127 -7.14844,0 0,-36.468752 7.14844,0 0,7.429687 c -1e-5,0.578154 -0.0547,1.937527 -0.16406,4.078125 l -0.16407,2.109375 0.375,0 c 1.59374,-2.562474 4.12499,-3.843723 7.59375,-3.84375 3.07811,2.7e-5 5.41404,0.828151 7.00782,2.484375 1.59372,1.656273 2.39059,4.03127 2.39062,7.125 z"
         id="path4329"
         inkscape:connector-curvature="0"
         style="fill:#ffffff;fill-opacity:0.94117647" />
      <path
         d="m 616.33853,100.00001 -0.96094,-3.351565 -0.375,0 c -0.76564,1.218752 -1.85158,2.160158 -3.25781,2.824219 -1.40626,0.664066 -3.00783,0.996096 -4.80469,0.996096 -3.07813,0 -5.39844,-0.824221 -6.96093,-2.472659 -1.56251,-1.648433 -2.34376,-4.019525 -2.34375,-7.113281 l 0,-17.085937 7.14843,0 0,15.304687 c -1e-5,1.890634 0.33593,3.308601 1.00782,4.253906 0.67186,0.945319 1.74217,1.417974 3.21093,1.417969 1.99999,5e-6 3.4453,-0.667963 4.33594,-2.003906 0.89061,-1.335929 1.33592,-3.550771 1.33594,-6.644531 l 0,-12.328125 7.14844,0 0,26.203127 z"
         id="path4331"
         inkscape:connector-curvature="0"
         style="fill:#ffffff;fill-opacity:0.94117647" />
      <path
         d="m 643.94791,73.304695 c 3.09373,2.7e-5 5.5156,1.207057 7.26562,3.621094 1.74997,2.414083 2.62497,5.722673 2.625,9.925781 -3e-5,4.328134 -0.90237,7.679693 -2.70703,10.054688 -1.80471,2.375 -4.26174,3.562502 -7.37109,3.562502 -3.07814,0 -5.4922,-1.117189 -7.24219,-3.351565 l -0.49219,0 -1.19531,2.882815 -5.46094,0 0,-36.468752 7.14844,0 0,8.484375 c -1e-5,1.078152 -0.0938,2.804712 -0.28125,5.179687 l 0.28125,0 c 1.67186,-2.593724 4.14842,-3.890598 7.42969,-3.890625 z m -2.29688,5.71875 c -1.76564,2.1e-5 -3.0547,0.542989 -3.86719,1.628906 -0.81251,1.085956 -1.23438,2.878923 -1.26562,5.378907 l 0,0.773437 c -1e-5,2.812511 0.41796,4.828133 1.25391,6.046875 0.83592,1.218756 2.16014,1.82813 3.97265,1.828125 1.46873,5e-6 2.6367,-0.675775 3.50391,-2.027344 0.86716,-1.351553 1.30076,-3.316395 1.30078,-5.894531 -2e-5,-2.578109 -0.43752,-4.511701 -1.3125,-5.800781 -0.87502,-1.289042 -2.07033,-1.933573 -3.58594,-1.933594 z"
         id="path4333"
         inkscape:connector-curvature="0"
         style="fill:#ffffff;fill-opacity:0.94117647" />
    </g>
    <g
       style="font-size:28px;font-style:normal;font-variant:normal;font-weight:normal;font-stretch:normal;text-align:center;line-height:125%;letter-spacing:0px;word-spacing:0px;text-anchor:middle;fill:#ffffff;fill-opacity:1;stroke:none;font-family:Segoe UI Emoji;-inkscape-font-specification:Segoe UI Emoji"
       id="text4335"
       transform="matrix(1.0615179,0,0,1.0615179,-6.9053325,42.476593)">
      <path
         d="M 56.429047,475.39453 50.891937,495 l -2.693359,0 -4.033203,-14.32813 c -0.173191,-0.61066 -0.278008,-1.27602 -0.314453,-1.99609 l -0.05469,0 c -0.0547,0.6745 -0.17319,1.33075 -0.355469,1.96875 L 39.380219,495 l -2.666016,0 -5.742188,-19.60547 2.529297,0 4.169922,15.03906 c 0.17317,0.62891 0.282545,1.28516 0.328125,1.96875 l 0.06836,0 c 0.04557,-0.48307 0.186841,-1.13932 0.423828,-1.96875 l 4.333984,-15.03906 2.201172,0 4.15625,15.14844 c 0.145815,0.51953 0.255189,1.13021 0.328125,1.83203 l 0.05469,0 c 0.03644,-0.47396 0.159486,-1.10286 0.369141,-1.88672 l 4.005859,-15.09375 z"
         id="path4340"
         inkscape:connector-curvature="0"
         style="fill:#ffffff;fill-opacity:1" />
      <path
         d="m 70.278656,488.56055 -9.884766,0 c 0.03646,1.5586 0.455725,2.76172 1.257813,3.60937 0.802078,0.84766 1.904941,1.27149 3.308594,1.27149 1.576813,0 3.02603,-0.51953 4.347656,-1.5586 l 0,2.10547 c -1.23048,0.89323 -2.857432,1.33984 -4.880859,1.33984 -1.977871,0 -3.531906,-0.63574 -4.66211,-1.90722 -1.13021,-1.27148 -1.695314,-3.06022 -1.695312,-5.36621 -2e-6,-2.17838 0.617511,-3.95344 1.852539,-5.3252 1.235021,-1.37173 2.768548,-2.0576 4.600586,-2.05762 1.832021,2e-5 3.249338,0.59247 4.251953,1.77735 1.002591,1.18491 1.503892,2.83009 1.503906,4.93555 z m -2.296875,-1.90039 c -0.0091,-1.29426 -0.3213,-2.30143 -0.936523,-3.02149 -0.615244,-0.72004 -1.469736,-1.08006 -2.563477,-1.08008 -1.057298,2e-5 -1.955084,0.37827 -2.693359,1.13477 -0.738286,0.75652 -1.194015,1.74545 -1.367188,2.9668 z"
         id="path4342"
         inkscape:connector-curvature="0"
         style="fill:#ffffff;fill-opacity:1" />
      <path
         d="m 85.632172,495 -2.242188,0 0,-2.37891 -0.05469,0 c -1.039074,1.80469 -2.643239,2.70703 -4.8125,2.70703 -1.75912,0 -3.165043,-0.62662 -4.217774,-1.87988 -1.052736,-1.25325 -1.579103,-2.95995 -1.579101,-5.12012 -2e-6,-2.31509 0.583331,-4.16991 1.75,-5.56445 1.166662,-1.39452 2.720697,-2.09178 4.662109,-2.0918 1.923167,2e-5 3.322255,0.75653 4.197266,2.26954 l 0.05469,0 0,-8.66797 2.242188,0 z m -2.242188,-6.33008 0,-2.06445 c -1.2e-5,-1.1302 -0.373709,-2.08723 -1.121094,-2.8711 -0.747406,-0.78384 -1.695321,-1.17576 -2.84375,-1.17578 -1.367194,2e-5 -2.442714,0.50132 -3.226562,1.50391 -0.783858,1.00261 -1.175785,2.38803 -1.175781,4.15625 -4e-6,1.61329 0.375972,2.88705 1.127929,3.82129 0.751948,0.93425 1.761387,1.40137 3.028321,1.40137 1.248689,0 2.262685,-0.45117 3.041992,-1.35352 0.779285,-0.90234 1.168933,-2.04166 1.168945,-3.41797 z"
         id="path4344"
         inkscape:connector-curvature="0"
         style="fill:#ffffff;fill-opacity:1" />
      <path
         d="m 109.07944,495 -11.087893,0 0,-1.96875 4.429683,0 0,-15.23047 -4.539058,1.35352 0,-2.13282 6.781248,-2.06445 0,18.07422 4.41602,0 z"
         id="path4346"
         inkscape:connector-curvature="0"
         style="fill:#ffffff;fill-opacity:1" />
      <path
         d="m 124.17319,495 -11.08789,0 0,-1.96875 4.42968,0 0,-15.23047 -4.53906,1.35352 0,-2.13282 6.78125,-2.06445 0,18.07422 4.41602,0 z"
         id="path4348"
         inkscape:connector-curvature="0"
         style="fill:#ffffff;fill-opacity:1" />
      <path
         d="m 136.88803,475.39453 -9.40625,22.85938 -2.0918,0 9.37891,-22.85938 z"
         id="path4350"
         inkscape:connector-curvature="0"
         style="fill:#ffffff;fill-opacity:1" />
      <path
         d="m 150.20444,495 -11.08789,0 0,-1.96875 4.42968,0 0,-15.23047 -4.53906,1.35352 0,-2.13282 6.78125,-2.06445 0,18.07422 4.41602,0 z"
         id="path4352"
         inkscape:connector-curvature="0"
         style="fill:#ffffff;fill-opacity:1" />
      <path
         d="m 154.15561,494.67187 0,-2.16015 c 1.09375,0.61979 2.2513,0.92969 3.47266,0.92969 1.77733,0 3.16047,-0.7155 4.14941,-2.14649 0.98892,-1.43098 1.48339,-3.46353 1.4834,-6.09765 -0.0182,0.009 -0.0365,0.009 -0.0547,0 -0.83855,1.6862 -2.29688,2.5293 -4.375,2.52929 -1.67709,10e-6 -3.05339,-0.56965 -4.12891,-1.70898 -1.07552,-1.13931 -1.61328,-2.60676 -1.61328,-4.40235 0,-1.91404 0.59017,-3.48403 1.77051,-4.70996 1.18033,-1.22589 2.69108,-1.83884 4.53223,-1.83886 1.93228,2e-5 3.43846,0.76336 4.51855,2.29004 1.08007,1.5267 1.62011,3.74838 1.62012,6.66503 -1e-5,3.6185 -0.70184,6.40756 -2.10547,8.36719 -1.40366,1.95964 -3.35417,2.93945 -5.85156,2.93945 -1.31251,0 -2.45183,-0.21875 -3.41797,-0.65625 z m 5.03125,-17.70507 c -1.08464,1e-5 -1.98926,0.40789 -2.71387,1.22363 -0.72461,0.81577 -1.08692,1.85255 -1.08691,3.11035 -1e-5,1.37632 0.35546,2.45867 1.0664,3.24707 0.71094,0.78842 1.67252,1.18263 2.88477,1.18262 1.05728,10e-6 1.95279,-0.36002 2.68652,-1.08008 0.73372,-0.72004 1.10058,-1.5996 1.10059,-2.63867 -1e-5,-1.48566 -0.3646,-2.6979 -1.09375,-3.63672 -0.72918,-0.93878 -1.67709,-1.40819 -2.84375,-1.4082 z"
         id="path4354"
         inkscape:connector-curvature="0"
         style="fill:#ffffff;fill-opacity:1" />
      <path
         d="m 171.21811,491.88281 -2.1875,6.72656 -1.59961,0 1.59961,-6.72656 z"
         id="path4356"
         inkscape:connector-curvature="0"
         style="fill:#ffffff;fill-opacity:1" />
      <path
         d="m 193.39389,475.62695 0,2.11914 c -1.01173,-0.51951 -2.07814,-0.77928 -3.19922,-0.77929 -1.74089,1e-5 -3.13314,0.77475 -4.17676,2.32422 -1.04362,1.54949 -1.56543,3.62305 -1.56543,6.2207 l 0.0547,0 c 0.91146,-1.85025 2.40625,-2.77538 4.48438,-2.77539 1.71353,10e-6 3.07616,0.54916 4.08789,1.64746 1.0117,1.09832 1.51756,2.56804 1.51758,4.40918 -2e-5,1.92318 -0.57879,3.49317 -1.73633,4.70996 -1.15757,1.2168 -2.62957,1.82519 -4.41602,1.82519 -1.96875,0 -3.51367,-0.78385 -4.63476,-2.35156 -1.1211,-1.5677 -1.68165,-3.76887 -1.68164,-6.60351 -1e-5,-3.43619 0.73372,-6.17968 2.20117,-8.23047 1.46744,-2.05076 3.40429,-3.07615 5.81054,-3.07617 1.36718,2e-5 2.45182,0.18686 3.25391,0.56054 z m -4.89453,9.00977 c -1.15756,10e-6 -2.09636,0.39194 -2.81641,1.17578 -0.72005,0.78386 -1.08008,1.70899 -1.08008,2.77539 0,1.33985 0.35775,2.48373 1.07325,3.43164 0.71549,0.94792 1.66568,1.42188 2.85058,1.42188 1.1302,0 2.04166,-0.41244 2.73438,-1.23731 0.69269,-0.82486 1.03905,-1.87076 1.03906,-3.13769 -1e-5,-1.38541 -0.33269,-2.47005 -0.99805,-3.25391 -0.66537,-0.78384 -1.59961,-1.17577 -2.80273,-1.17578 z"
         id="path4358"
         inkscape:connector-curvature="0"
         style="fill:#ffffff;fill-opacity:1" />
      <path
         d="m 198.76694,483.73437 c -0.41928,2e-5 -0.77702,-0.15037 -1.07324,-0.45117 -0.29623,-0.30077 -0.44434,-0.66079 -0.44434,-1.08008 0,-0.41925 0.14811,-0.77472 0.44434,-1.0664 0.29622,-0.29165 0.65396,-0.43749 1.07324,-0.4375 0.42838,10e-6 0.79296,0.14585 1.09375,0.4375 0.30077,0.29168 0.45116,0.64715 0.45117,1.0664 -1e-5,0.41929 -0.1504,0.77931 -0.45117,1.08008 -0.30079,0.3008 -0.66537,0.45119 -1.09375,0.45117 z m 0,11.56641 c -0.41928,0 -0.77702,-0.15039 -1.07324,-0.45117 -0.29623,-0.30078 -0.44434,-0.66081 -0.44434,-1.08008 0,-0.41927 0.14811,-0.78157 0.44434,-1.08691 0.29622,-0.30534 0.65396,-0.45801 1.07324,-0.45801 0.42838,0 0.79296,0.15267 1.09375,0.45801 0.30077,0.30534 0.45116,0.66764 0.45117,1.08691 -1e-5,0.41927 -0.1504,0.7793 -0.45117,1.08008 -0.30079,0.30078 -0.66537,0.45117 -1.09375,0.45117 z"
         id="path4360"
         inkscape:connector-curvature="0"
         style="fill:#ffffff;fill-opacity:1" />
      <path
         d="m 209.14389,495.32812 c -1.94141,0 -3.45671,-0.83398 -4.5459,-2.50195 -1.08919,-1.66796 -1.63379,-4.07877 -1.63379,-7.23242 0,-3.46353 0.56738,-6.08397 1.70215,-7.86133 1.13476,-1.77732 2.77311,-2.66599 4.91504,-2.66601 4.10155,2e-5 6.15233,3.34962 6.15234,10.04882 -1e-5,3.31772 -0.57879,5.84929 -1.73632,7.59473 -1.15757,1.74544 -2.7754,2.61816 -4.85352,2.61816 z m 0.31445,-18.36132 c -2.79818,1e-5 -4.19727,2.8392 -4.19726,8.51757 -1e-5,5.3047 1.37174,7.95704 4.11523,7.95704 2.70702,0 4.06054,-2.69792 4.06055,-8.09375 -1e-5,-5.58723 -1.32618,-8.38085 -3.97852,-8.38086 z"
         id="path4362"
         inkscape:connector-curvature="0"
         style="fill:#ffffff;fill-opacity:1" />
      <path
         d="m 224.23764,495.32812 c -1.94141,0 -3.45671,-0.83398 -4.5459,-2.50195 -1.08919,-1.66796 -1.63379,-4.07877 -1.63379,-7.23242 0,-3.46353 0.56738,-6.08397 1.70215,-7.86133 1.13476,-1.77732 2.77311,-2.66599 4.91504,-2.66601 4.10155,2e-5 6.15233,3.34962 6.15234,10.04882 -1e-5,3.31772 -0.57879,5.84929 -1.73632,7.59473 -1.15757,1.74544 -2.7754,2.61816 -4.85352,2.61816 z m 0.31445,-18.36132 c -2.79818,1e-5 -4.19727,2.8392 -4.19726,8.51757 -1e-5,5.3047 1.37174,7.95704 4.11523,7.95704 2.70702,0 4.06054,-2.69792 4.06055,-8.09375 -1e-5,-5.58723 -1.32618,-8.38085 -3.97852,-8.38086 z"
         id="path4364"
         inkscape:connector-curvature="0"
         style="fill:#ffffff;fill-opacity:1" />
      <path
         d="m 244.49936,487.58984 0,7.41016 -2.29688,0 0,-19.60547 5.38672,0 c 2.09635,2e-5 3.72102,0.51044 4.87403,1.53125 1.15298,1.02085 1.72947,2.46095 1.72949,4.32031 -2e-5,1.85939 -0.64031,3.38152 -1.9209,4.56641 -1.28061,1.1849 -3.0101,1.77735 -5.18848,1.77734 z m 0,-10.11718 0,8.03906 2.40625,0 c 1.58593,10e-6 2.79589,-0.3623 3.62988,-1.08692 0.83397,-0.72459 1.25097,-1.7477 1.25098,-3.06933 -1e-5,-2.58853 -1.53126,-3.8828 -4.59375,-3.88281 z"
         id="path4366"
         inkscape:connector-curvature="0"
         style="fill:#ffffff;fill-opacity:1" />
      <path
         d="m 277.88608,495 -2.28321,0 0,-13.15234 c -2e-5,-1.03905 0.0638,-2.31054 0.19141,-3.81446 l -0.0547,0 c -0.21877,0.88413 -0.41473,1.5176 -0.58789,1.90039 L 268.45248,495 l -1.12109,0 -6.68555,-14.95703 c -0.19141,-0.43749 -0.38737,-1.10741 -0.58789,-2.00977 l -0.0547,0 c 0.0729,0.78387 0.10937,2.06447 0.10937,3.8418 l 0,13.125 -2.21484,0 0,-19.60547 3.03515,0 6.01563,13.67188 c 0.46483,1.04818 0.76561,1.83203 0.90234,2.35156 l 0.082,0 c 0.39192,-1.07552 0.70637,-1.8776 0.94336,-2.40625 l 6.13867,-13.61719 2.8711,0 z"
         id="path4368"
         inkscape:connector-curvature="0"
         style="fill:#ffffff;fill-opacity:1" />
      <path
         d="m 292.51498,499.70575 -2.02343,0 0,-28 2.02343,0 z"
         id="path4370"
         inkscape:connector-curvature="0"
         style="fill:#ffffff;fill-opacity:1" />
      <path
         d="m 316.68686,477.47266 -5.66016,0 0,17.52734 -2.29687,0 0,-17.52734 -5.64649,0 0,-2.07813 13.60352,0 z"
         id="path4372"
         inkscape:connector-curvature="0"
         style="fill:#ffffff;fill-opacity:1" />
      <path
         d="m 331.06967,495 -2.24219,0 0,-8.06641 c -10e-6,-2.91665 -1.08464,-4.37498 -3.2539,-4.375 -1.09376,2e-5 -2.01433,0.42157 -2.76172,1.26465 -0.7474,0.84311 -1.1211,1.92547 -1.12109,3.24707 l 0,7.92969 -2.24219,0 0,-20.72656 2.24219,0 0,9.05078 0.0547,0 c 1.07552,-1.76822 2.60677,-2.65233 4.59375,-2.65235 3.15364,2e-5 4.73046,1.90041 4.73047,5.70118 z"
         id="path4374"
         inkscape:connector-curvature="0"
         style="fill:#ffffff;fill-opacity:1" />
      <path
         d="m 346.55991,488.56055 -9.88477,0 c 0.0365,1.5586 0.45573,2.76172 1.25781,3.60937 0.80208,0.84766 1.90494,1.27149 3.3086,1.27149 1.57681,0 3.02603,-0.51953 4.34765,-1.5586 l 0,2.10547 c -1.23048,0.89323 -2.85743,1.33984 -4.88086,1.33984 -1.97787,0 -3.5319,-0.63574 -4.66211,-1.90722 -1.13021,-1.27148 -1.69531,-3.06022 -1.69531,-5.36621 0,-2.17838 0.61751,-3.95344 1.85254,-5.3252 1.23502,-1.37173 2.76855,-2.0576 4.60059,-2.05762 1.83202,2e-5 3.24933,0.59247 4.25195,1.77735 1.00259,1.18491 1.50389,2.83009 1.50391,4.93555 z m -2.29688,-1.90039 c -0.009,-1.29426 -0.3213,-2.30143 -0.93652,-3.02149 -0.61525,-0.72004 -1.46974,-1.08006 -2.56348,-1.08008 -1.0573,2e-5 -1.95508,0.37827 -2.69336,1.13477 -0.73828,0.75652 -1.19401,1.74545 -1.36719,2.9668 z"
         id="path4376"
         inkscape:connector-curvature="0"
         style="fill:#ffffff;fill-opacity:1" />
      <path
         d="m 360.21811,487.58984 0,7.41016 -2.29688,0 0,-19.60547 5.38672,0 c 2.09635,2e-5 3.72102,0.51044 4.87403,1.53125 1.15298,1.02085 1.72947,2.46095 1.72949,4.32031 -2e-5,1.85939 -0.64031,3.38152 -1.9209,4.56641 -1.28061,1.1849 -3.0101,1.77735 -5.18848,1.77734 z m 0,-10.11718 0,8.03906 2.40625,0 c 1.58593,10e-6 2.79589,-0.3623 3.62988,-1.08692 0.83397,-0.72459 1.25097,-1.7477 1.25098,-3.06933 -1e-5,-2.58853 -1.53126,-3.8828 -4.59375,-3.88281 z"
         id="path4378"
         inkscape:connector-curvature="0"
         style="fill:#ffffff;fill-opacity:1" />
      <path
         d="m 375.55795,495 -2.24218,0 0,-20.72656 2.24218,0 z"
         id="path4380"
         inkscape:connector-curvature="0"
         style="fill:#ffffff;fill-opacity:1" />
      <path
         d="m 390.1185,495 -2.24219,0 0,-2.1875 -0.0547,0 c -0.97526,1.67708 -2.41081,2.51562 -4.30664,2.51562 -1.39453,0 -2.486,-0.36914 -3.27441,-1.10742 -0.78841,-0.73828 -1.18262,-1.71809 -1.18262,-2.93945 0,-2.61588 1.54036,-4.13801 4.6211,-4.56641 l 4.19726,-0.58789 c -1e-5,-2.37889 -0.9616,-3.56834 -2.88476,-3.56836 -1.68621,2e-5 -3.20834,0.57423 -4.56641,1.72266 l 0,-2.29688 c 1.3763,-0.87498 2.96223,-1.31248 4.75781,-1.3125 3.29036,2e-5 4.93554,1.7409 4.93555,5.22266 z m -2.24219,-7.08203 -3.37695,0.46484 c -1.03907,0.14584 -1.82292,0.40333 -2.35156,0.77246 -0.52865,0.36915 -0.79298,1.02312 -0.79297,1.96192 -10e-6,0.68359 0.24381,1.24186 0.73144,1.6748 0.48763,0.43295 1.13704,0.64942 1.94825,0.64942 1.11197,0 2.03026,-0.38965 2.75488,-1.16895 0.7246,-0.77929 1.0869,-1.76595 1.08691,-2.95996 z"
         id="path4382"
         inkscape:connector-curvature="0"
         style="fill:#ffffff;fill-opacity:1" />
      <path
         d="m 405.99155,495 -2.24219,0 0,-7.98438 c -1e-5,-2.97134 -1.08465,-4.45701 -3.25391,-4.45703 -1.1211,2e-5 -2.04851,0.42157 -2.78222,1.26465 -0.73373,0.84311 -1.10059,1.90724 -1.10059,3.19238 l 0,7.98438 -2.24219,0 0,-14 2.24219,0 0,2.32422 0.0547,0 c 1.05728,-1.76822 2.58853,-2.65233 4.59375,-2.65235 1.53124,2e-5 2.70246,0.49448 3.51367,1.4834 0.81118,0.98895 1.21678,2.41766 1.2168,4.28614 z"
         id="path4384"
         inkscape:connector-curvature="0"
         style="fill:#ffffff;fill-opacity:1" />
      <path
         d="m 416.72397,494.86328 c -0.52866,0.29167 -1.22592,0.4375 -2.0918,0.4375 -2.45183,0 -3.67774,-1.36719 -3.67773,-4.10156 l 0,-8.28516 -2.40625,0 0,-1.91406 2.40625,0 0,-3.41797 2.24218,-0.72461 0,4.14258 3.52735,0 0,1.91406 -3.52735,0 0,7.88867 c 0,0.93881 0.1595,1.60873 0.47852,2.00977 0.319,0.40104 0.84765,0.60156 1.58594,0.60156 0.56509,0 1.05272,-0.15494 1.46289,-0.46484 z"
         id="path4386"
         inkscape:connector-curvature="0"
         style="fill:#ffffff;fill-opacity:1" />
      <path
         d="m 425.59702,495.32812 c -2.06902,0 -3.72104,-0.65397 -4.95606,-1.96191 -1.23503,-1.30794 -1.85254,-3.04199 -1.85254,-5.20215 0,-2.35155 0.64258,-4.18814 1.92774,-5.50976 1.28515,-1.3216 3.02147,-1.98241 5.20898,-1.98243 2.08723,2e-5 3.71646,0.6426 4.8877,1.92774 1.17121,1.28517 1.75682,3.06707 1.75683,5.3457 -10e-6,2.23308 -0.6312,4.02182 -1.89355,5.36621 -1.26238,1.3444 -2.95542,2.0166 -5.0791,2.0166 z m 0.16406,-12.76953 c -1.44011,2e-5 -2.57943,0.48992 -3.41797,1.46973 -0.83855,0.97983 -1.25782,2.33106 -1.25781,4.05371 -1e-5,1.65886 0.42382,2.9668 1.27148,3.92383 0.84765,0.95703 1.98242,1.43555 3.4043,1.43555 1.44921,0 2.56346,-0.4694 3.34277,-1.40821 0.77929,-0.9388 1.16893,-2.27408 1.16895,-4.00586 -2e-5,-1.74999 -0.38966,-3.09894 -1.16895,-4.04687 -0.77931,-0.94791 -1.89356,-1.42186 -3.34277,-1.42188 z"
         id="path4388"
         inkscape:connector-curvature="0"
         style="fill:#ffffff;fill-opacity:1" />
      <path
         d="m 443.45248,483.26953 c -0.39193,-0.30077 -0.95704,-0.45116 -1.69531,-0.45117 -0.95704,1e-5 -1.75684,0.45118 -2.39941,1.35351 -0.64259,0.90236 -0.96387,2.13283 -0.96387,3.69141 l 0,7.13672 -2.24219,0 0,-14 2.24219,0 0,2.88477 0.0547,0 c 0.319,-0.98437 0.80663,-1.75227 1.46289,-2.30372 0.65624,-0.55141 1.38997,-0.82713 2.20117,-0.82714 0.58332,10e-6 1.02994,0.0638 1.33984,0.1914 z"
         id="path4390"
         inkscape:connector-curvature="0"
         style="fill:#ffffff;fill-opacity:1" />
      <path
         d="m 457.02866,481 -6.43946,16.24219 c -1.14844,2.89843 -2.76172,4.34765 -4.83984,4.34765 -0.58334,0 -1.07097,-0.0592 -1.46289,-0.17773 l 0,-2.00977 c 0.48307,0.16406 0.92513,0.24609 1.32617,0.2461 1.13021,-10e-6 1.97786,-0.67449 2.54297,-2.02344 L 449.2767,494.97266 443.80795,481 l 2.48828,0 3.78711,10.77344 c 0.0456,0.13672 0.14127,0.49219 0.28711,1.0664 l 0.082,0 c 0.0456,-0.21874 0.13672,-0.5651 0.27344,-1.03906 L 454.70444,481 z"
         id="path4392"
         inkscape:connector-curvature="0"
         style="fill:#ffffff;fill-opacity:1" />
      <path
         d="m 469.2103,499.70575 -2.02344,0 0,-28 2.02344,0 z"
         id="path4394"
         inkscape:connector-curvature="0"
         style="fill:#ffffff;fill-opacity:1" />
      <path
         d="m 481.4603,494.52148 0,-2.3789 c 1.33984,0.86589 2.70247,1.29883 4.08789,1.29883 1.38541,0 2.50194,-0.39193 3.34961,-1.17579 0.84764,-0.78385 1.27147,-1.82291 1.27148,-3.11718 -1e-5,-1.28515 -0.43295,-2.28775 -1.29883,-3.00782 -0.86589,-0.72004 -2.10547,-1.08006 -3.71875,-1.08007 -0.54688,1e-5 -1.57227,0.0547 -3.07617,0.16406 l 0,-9.83008 9.48828,0 0,2.02344 -7.36914,0 0,5.74219 c 0.60156,-0.0365 1.15755,-0.0547 1.66797,-0.0547 2.09635,1e-5 3.71874,0.52638 4.86719,1.5791 1.14842,1.05274 1.72264,2.49513 1.72265,4.32715 -10e-6,1.89584 -0.61752,3.42253 -1.85253,4.58008 -1.23504,1.15755 -2.92807,1.73632 -5.07911,1.73632 -1.8138,0 -3.16732,-0.26888 -4.06054,-0.80664 z"
         id="path4396"
         inkscape:connector-curvature="0"
         style="fill:#ffffff;fill-opacity:1" />
      <path
         d="m 501.66733,495.32812 c -1.94141,0 -3.45671,-0.83398 -4.5459,-2.50195 -1.08919,-1.66796 -1.63379,-4.07877 -1.63379,-7.23242 0,-3.46353 0.56738,-6.08397 1.70215,-7.86133 1.13476,-1.77732 2.77311,-2.66599 4.91504,-2.66601 4.10155,2e-5 6.15233,3.34962 6.15234,10.04882 -10e-6,3.31772 -0.57879,5.84929 -1.73633,7.59473 -1.15756,1.74544 -2.7754,2.61816 -4.85351,2.61816 z m 0.31445,-18.36132 c -2.79818,1e-5 -4.19727,2.8392 -4.19726,8.51757 -10e-6,5.3047 1.37174,7.95704 4.11523,7.95704 2.70702,0 4.06053,-2.69792 4.06055,-8.09375 -2e-5,-5.58723 -1.32619,-8.38085 -3.97852,-8.38086 z"
         id="path4398"
         inkscape:connector-curvature="0"
         style="fill:#ffffff;fill-opacity:1" />
      <path
         d="m 522.89975,495 -11.08789,0 0,-1.96875 4.42969,0 0,-15.23047 -4.53907,1.35352 0,-2.13282 6.78125,-2.06445 0,18.07422 4.41602,0 z"
         id="path4400"
         inkscape:connector-curvature="0"
         style="fill:#ffffff;fill-opacity:1" />
      <path
         d="M 557.96811,475.39453 552.431,495 l -2.69336,0 -4.0332,-14.32813 c -0.17319,-0.61066 -0.27801,-1.27602 -0.31446,-1.99609 l -0.0547,0 c -0.0547,0.6745 -0.17319,1.33075 -0.35547,1.96875 L 540.91928,495 l -2.66601,0 -5.74219,-19.60547 2.52929,0 4.16993,15.03906 c 0.17317,0.62891 0.28254,1.28516 0.32812,1.96875 l 0.0684,0 c 0.0456,-0.48307 0.18684,-1.13932 0.42383,-1.96875 l 4.33398,-15.03906 2.20118,0 4.15625,15.14844 c 0.14581,0.51953 0.25518,1.13021 0.32812,1.83203 l 0.0547,0 c 0.0364,-0.47396 0.15948,-1.10286 0.36914,-1.88672 l 4.00586,-15.09375 z"
         id="path4402"
         inkscape:connector-curvature="0"
         style="fill:#ffffff;fill-opacity:1" />
      <path
         d="m 571.06577,475.62695 0,2.11914 c -1.01174,-0.51951 -2.07814,-0.77928 -3.19922,-0.77929 -1.7409,1e-5 -3.13315,0.77475 -4.17676,2.32422 -1.04363,1.54949 -1.56543,3.62305 -1.56543,6.2207 l 0.0547,0 c 0.91145,-1.85025 2.40624,-2.77538 4.48437,-2.77539 1.71353,10e-6 3.07616,0.54916 4.08789,1.64746 1.01171,1.09832 1.51757,2.56804 1.51758,4.40918 -10e-6,1.92318 -0.57879,3.49317 -1.73633,4.70996 -1.15756,1.2168 -2.62956,1.82519 -4.41601,1.82519 -1.96876,0 -3.51368,-0.78385 -4.63477,-2.35156 -1.12109,-1.5677 -1.68164,-3.76887 -1.68164,-6.60351 0,-3.43619 0.73372,-6.17968 2.20117,-8.23047 1.46744,-2.05076 3.40429,-3.07615 5.81055,-3.07617 1.36718,2e-5 2.45181,0.18686 3.25391,0.56054 z m -4.89454,9.00977 c -1.15755,10e-6 -2.09636,0.39194 -2.8164,1.17578 -0.72006,0.78386 -1.08008,1.70899 -1.08008,2.77539 0,1.33985 0.35774,2.48373 1.07324,3.43164 0.71549,0.94792 1.66569,1.42188 2.85059,1.42188 1.1302,0 2.04165,-0.41244 2.73437,-1.23731 0.6927,-0.82486 1.03905,-1.87076 1.03907,-3.13769 -2e-5,-1.38541 -0.3327,-2.47005 -0.99805,-3.25391 -0.66538,-0.78384 -1.59962,-1.17577 -2.80274,-1.17578 z"
         id="path4404"
         inkscape:connector-curvature="0"
         style="fill:#ffffff;fill-opacity:1" />
      <path
         d="m 582.15366,494.86328 c -0.52866,0.29167 -1.22592,0.4375 -2.0918,0.4375 -2.45183,0 -3.67774,-1.36719 -3.67774,-4.10156 l 0,-8.28516 -2.40625,0 0,-1.91406 2.40625,0 0,-3.41797 2.24219,-0.72461 0,4.14258 3.52735,0 0,1.91406 -3.52735,0 0,7.88867 c 0,0.93881 0.1595,1.60873 0.47852,2.00977 0.319,0.40104 0.84765,0.60156 1.58594,0.60156 0.56509,0 1.05272,-0.15494 1.46289,-0.46484 z"
         id="path4406"
         inkscape:connector-curvature="0"
         style="fill:#ffffff;fill-opacity:1" />
      <path
         d="m 596.79623,495 -2.24218,0 0,-8.06641 c -2e-5,-2.91665 -1.08465,-4.37498 -3.25391,-4.375 -1.09376,2e-5 -2.01433,0.42157 -2.76172,1.26465 -0.7474,0.84311 -1.1211,1.92547 -1.12109,3.24707 l 0,7.92969 -2.24219,0 0,-20.72656 2.24219,0 0,9.05078 0.0547,0 c 1.07551,-1.76822 2.60676,-2.65233 4.59375,-2.65235 3.15363,2e-5 4.73045,1.90041 4.73046,5.70118 z"
         id="path4408"
         inkscape:connector-curvature="0"
         style="fill:#ffffff;fill-opacity:1" />
      <path
         d="m 608.07553,494.20703 0,-2.70703 c 0.30989,0.27344 0.68131,0.51953 1.11426,0.73828 0.43294,0.21875 0.88867,0.40332 1.36719,0.55371 0.47851,0.15039 0.9593,0.26661 1.44238,0.34863 0.48307,0.082 0.92968,0.12305 1.33984,0.12305 1.41275,0 2.46777,-0.26204 3.16504,-0.78613 0.69726,-0.52409 1.04589,-1.27832 1.0459,-2.2627 -1e-5,-0.52864 -0.11622,-0.98892 -0.34863,-1.38086 -0.23243,-0.39192 -0.55372,-0.74966 -0.96387,-1.07324 -0.41017,-0.32356 -0.89552,-0.63345 -1.45605,-0.92969 -0.56056,-0.29621 -1.1644,-0.60838 -1.81153,-0.93652 -0.6836,-0.34634 -1.32162,-0.69725 -1.91406,-1.05273 -0.59245,-0.35546 -1.10743,-0.74739 -1.54492,-1.17578 -0.4375,-0.42838 -0.78158,-0.91373 -1.03223,-1.45606 -0.25065,-0.5423 -0.37598,-1.17804 -0.37598,-1.90723 0,-0.89321 0.19597,-1.67023 0.5879,-2.33105 0.39192,-0.66079 0.90689,-1.20539 1.54492,-1.63379 0.63801,-0.42837 1.3649,-0.74738 2.18066,-0.95703 0.81575,-0.20962 1.64745,-0.31443 2.49512,-0.31445 1.93228,2e-5 3.34048,0.23244 4.22461,0.69726 l 0,2.58399 c -1.15757,-0.80207 -2.64324,-1.20311 -4.45703,-1.20313 -0.50131,2e-5 -1.00261,0.0524 -1.50391,0.15723 -0.50131,0.10483 -0.94792,0.27573 -1.33984,0.51269 -0.39194,0.237 -0.71095,0.54234 -0.95703,0.91602 -0.2461,0.37371 -0.36915,0.82944 -0.36915,1.36719 0,0.50131 0.0934,0.93426 0.28028,1.29882 0.18684,0.3646 0.46256,0.69728 0.82715,0.99805 0.36457,0.30079 0.80891,0.59246 1.333,0.875 0.52409,0.28256 1.12793,0.59246 1.81153,0.92969 0.70181,0.34636 1.36718,0.71095 1.99609,1.09375 0.6289,0.38282 1.18033,0.80665 1.6543,1.27148 0.47394,0.46485 0.84992,0.97983 1.12793,1.54492 0.27798,0.56512 0.41698,1.21225 0.41699,1.94141 -1e-5,0.96615 -0.18914,1.78418 -0.56738,2.4541 -0.37827,0.66993 -0.88869,1.21452 -1.53125,1.63379 -0.64259,0.41927 -1.38315,0.72233 -2.22168,0.90918 -0.83855,0.18685 -1.72267,0.28027 -2.65235,0.28027 -0.3099,0 -0.69271,-0.0251 -1.14843,-0.0752 -0.45574,-0.0501 -0.92058,-0.12305 -1.39453,-0.21875 -0.47397,-0.0957 -0.92286,-0.21419 -1.34668,-0.35547 -0.42383,-0.14127 -0.76335,-0.2985 -1.01856,-0.47168 z"
         id="path4410"
         inkscape:connector-curvature="0"
         style="fill:#ffffff;fill-opacity:1" />
      <path
         d="m 630.05991,494.86328 c -0.52866,0.29167 -1.22592,0.4375 -2.0918,0.4375 -2.45183,0 -3.67774,-1.36719 -3.67774,-4.10156 l 0,-8.28516 -2.40625,0 0,-1.91406 2.40625,0 0,-3.41797 2.24219,-0.72461 0,4.14258 3.52735,0 0,1.91406 -3.52735,0 0,7.88867 c 0,0.93881 0.1595,1.60873 0.47852,2.00977 0.319,0.40104 0.84765,0.60156 1.58594,0.60156 0.56509,0 1.05272,-0.15494 1.46289,-0.46484 z"
         id="path4412"
         inkscape:connector-curvature="0"
         style="fill:#ffffff;fill-opacity:1" />
      <path
         d="m 635.13217,491.88281 -2.1875,6.72656 -1.59961,0 1.59961,-6.72656 z"
         id="path4414"
         inkscape:connector-curvature="0"
         style="fill:#ffffff;fill-opacity:1" />
      <path
         d="m 646.19272,494.20703 0,-2.70703 c 0.30989,0.27344 0.68131,0.51953 1.11426,0.73828 0.43294,0.21875 0.88866,0.40332 1.36718,0.55371 0.47851,0.15039 0.95931,0.26661 1.44239,0.34863 0.48306,0.082 0.92968,0.12305 1.33984,0.12305 1.41275,0 2.46776,-0.26204 3.16504,-0.78613 0.69725,-0.52409 1.04589,-1.27832 1.0459,-2.2627 -10e-6,-0.52864 -0.11622,-0.98892 -0.34863,-1.38086 -0.23244,-0.39192 -0.55373,-0.74966 -0.96387,-1.07324 -0.41017,-0.32356 -0.89552,-0.63345 -1.45606,-0.92969 -0.56055,-0.29621 -1.16439,-0.60838 -1.81152,-0.93652 -0.6836,-0.34634 -1.32162,-0.69725 -1.91406,-1.05273 -0.59245,-0.35546 -1.10743,-0.74739 -1.54492,-1.17578 -0.43751,-0.42838 -0.78158,-0.91373 -1.03223,-1.45606 -0.25065,-0.5423 -0.37598,-1.17804 -0.37598,-1.90723 0,-0.89321 0.19596,-1.67023 0.58789,-2.33105 0.39193,-0.66079 0.9069,-1.20539 1.54492,-1.63379 0.63802,-0.42837 1.36491,-0.74738 2.18067,-0.95703 0.81575,-0.20962 1.64745,-0.31443 2.49512,-0.31445 1.93228,2e-5 3.34048,0.23244 4.22461,0.69726 l 0,2.58399 c -1.15757,-0.80207 -2.64324,-1.20311 -4.45704,-1.20313 -0.50131,2e-5 -1.00261,0.0524 -1.5039,0.15723 -0.50131,0.10483 -0.94792,0.27573 -1.33985,0.51269 -0.39193,0.237 -0.71094,0.54234 -0.95703,0.91602 -0.2461,0.37371 -0.36914,0.82944 -0.36914,1.36719 0,0.50131 0.0934,0.93426 0.28028,1.29882 0.18684,0.3646 0.46256,0.69728 0.82714,0.99805 0.36458,0.30079 0.80892,0.59246 1.33301,0.875 0.52408,0.28256 1.12792,0.59246 1.81153,0.92969 0.70181,0.34636 1.36717,0.71095 1.99609,1.09375 0.62889,0.38282 1.18033,0.80665 1.6543,1.27148 0.47394,0.46485 0.84992,0.97983 1.12793,1.54492 0.27798,0.56512 0.41697,1.21225 0.41699,1.94141 -2e-5,0.96615 -0.18914,1.78418 -0.56738,2.4541 -0.37827,0.66993 -0.88869,1.21452 -1.53125,1.63379 -0.64259,0.41927 -1.38315,0.72233 -2.22168,0.90918 -0.83855,0.18685 -1.72267,0.28027 -2.65235,0.28027 -0.3099,0 -0.69271,-0.0251 -1.14844,-0.0752 -0.45573,-0.0501 -0.92057,-0.12305 -1.39453,-0.21875 -0.47396,-0.0957 -0.92285,-0.21419 -1.34668,-0.35547 -0.42383,-0.14127 -0.76335,-0.2985 -1.01855,-0.47168 z"
         id="path4416"
         inkscape:connector-curvature="0"
         style="fill:#ffffff;fill-opacity:1" />
      <path
         d="m 668.17709,494.86328 c -0.52865,0.29167 -1.22592,0.4375 -2.09179,0.4375 -2.45183,0 -3.67774,-1.36719 -3.67774,-4.10156 l 0,-8.28516 -2.40625,0 0,-1.91406 2.40625,0 0,-3.41797 2.24219,-0.72461 0,4.14258 3.52734,0 0,1.91406 -3.52734,0 0,7.88867 c -1e-5,0.93881 0.1595,1.60873 0.47852,2.00977 0.319,0.40104 0.84765,0.60156 1.58593,0.60156 0.5651,0 1.05273,-0.15494 1.46289,-0.46484 z"
         id="path4418"
         inkscape:connector-curvature="0"
         style="fill:#ffffff;fill-opacity:1" />
      <path
         d="m 682.45053,488.56055 -9.88476,0 c 0.0364,1.5586 0.45572,2.76172 1.25781,3.60937 0.80208,0.84766 1.90494,1.27149 3.30859,1.27149 1.57681,0 3.02603,-0.51953 4.34766,-1.5586 l 0,2.10547 c -1.23048,0.89323 -2.85743,1.33984 -4.88086,1.33984 -1.97787,0 -3.53191,-0.63574 -4.66211,-1.90722 -1.13021,-1.27148 -1.69531,-3.06022 -1.69531,-5.36621 0,-2.17838 0.61751,-3.95344 1.85254,-5.3252 1.23502,-1.37173 2.76854,-2.0576 4.60058,-2.05762 1.83202,2e-5 3.24934,0.59247 4.25195,1.77735 1.0026,1.18491 1.5039,2.83009 1.50391,4.93555 z m -2.29687,-1.90039 c -0.009,-1.29426 -0.3213,-2.30143 -0.93653,-3.02149 -0.61524,-0.72004 -1.46973,-1.08006 -2.56347,-1.08008 -1.0573,2e-5 -1.95509,0.37827 -2.69336,1.13477 -0.73829,0.75652 -1.19402,1.74545 -1.36719,2.9668 z"
         id="path4420"
         inkscape:connector-curvature="0"
         style="fill:#ffffff;fill-opacity:1" />
      <path
         d="m 704.36655,495 -11.8125,0 0,-1.99609 5.71484,-5.72852 c 1.45833,-1.45832 2.49967,-2.67284 3.12402,-3.64355 0.62434,-0.97069 0.93652,-2.00748 0.93653,-3.11036 -10e-6,-1.13019 -0.32358,-2.00519 -0.97071,-2.625 -0.64714,-0.61977 -1.56771,-0.92967 -2.76171,-0.92968 -1.75001,1e-5 -3.42709,0.74741 -5.03125,2.24218 l 0,-2.35156 c 1.53124,-1.19399 3.31314,-1.79099 5.3457,-1.79101 1.74999,2e-5 3.12629,0.47397 4.1289,1.42187 1.0026,0.94794 1.5039,2.21942 1.50391,3.81445 -10e-6,1.25783 -0.34637,2.48602 -1.03906,3.68457 -0.69272,1.19858 -1.93686,2.68654 -3.73242,4.46387 l -4.52539,4.4707 0,0.0547 9.11914,0 z"
         id="path4422"
         inkscape:connector-curvature="0"
         style="fill:#ffffff;fill-opacity:1" />
      <path
         d="m 708.57748,494.52148 0,-2.3789 c 1.33984,0.86589 2.70247,1.29883 4.08789,1.29883 1.38541,0 2.50195,-0.39193 3.34961,-1.17579 0.84765,-0.78385 1.27148,-1.82291 1.27149,-3.11718 -10e-6,-1.28515 -0.43295,-2.28775 -1.29883,-3.00782 -0.86589,-0.72004 -2.10548,-1.08006 -3.71875,-1.08007 -0.54688,1e-5 -1.57227,0.0547 -3.07617,0.16406 l 0,-9.83008 9.48828,0 0,2.02344 -7.36914,0 0,5.74219 c 0.60156,-0.0365 1.15755,-0.0547 1.66797,-0.0547 2.09634,1e-5 3.71874,0.52638 4.86719,1.5791 1.14842,1.05274 1.72264,2.49513 1.72265,4.32715 -10e-6,1.89584 -0.61752,3.42253 -1.85254,4.58008 -1.23503,1.15755 -2.92807,1.73632 -5.0791,1.73632 -1.81381,0 -3.16732,-0.26888 -4.06055,-0.80664 z"
         id="path4424"
         inkscape:connector-curvature="0"
         style="fill:#ffffff;fill-opacity:1" />
      <path
         d="m 728.78452,495.32812 c -1.94142,0 -3.45671,-0.83398 -4.5459,-2.50195 -1.0892,-1.66796 -1.63379,-4.07877 -1.63379,-7.23242 0,-3.46353 0.56738,-6.08397 1.70215,-7.86133 1.13476,-1.77732 2.7731,-2.66599 4.91504,-2.66601 4.10155,2e-5 6.15233,3.34962 6.15234,10.04882 -10e-6,3.31772 -0.57879,5.84929 -1.73633,7.59473 -1.15756,1.74544 -2.7754,2.61816 -4.85351,2.61816 z m 0.31445,-18.36132 c -2.79818,1e-5 -4.19727,2.8392 -4.19727,8.51757 0,5.3047 1.37174,7.95704 4.11524,7.95704 2.70702,0 4.06053,-2.69792 4.06054,-8.09375 -1e-5,-5.58723 -1.32618,-8.38085 -3.97851,-8.38086 z"
         id="path4426"
         inkscape:connector-curvature="0"
         style="fill:#ffffff;fill-opacity:1" />
    </g>
    <g
       id="g4624"
       transform="matrix(1.1243885,0,0,1.1243885,2.9170187,-65.291544)">
      <path
         d="m 384.2989,419.47436 1.90289,0 c 1.7785,2e-5 3.10927,-0.35133 3.99231,-1.05404 0.88303,-0.70268 1.32454,-1.72564 1.32457,-3.06887 -3e-5,-1.35563 -0.37004,-2.35681 -1.11002,-3.00357 -0.74003,-0.6467 -1.89978,-0.97007 -3.4793,-0.97009 l -2.63045,0 z m 13.05899,-4.32812 c -2e-5,2.93518 -0.91725,5.18008 -2.75171,6.73471 -1.83449,1.55465 -4.44319,2.33197 -7.82607,2.33195 l -2.48121,0 0,9.70097 -5.78326,0 0,-27.27463 8.7122,0 c 3.30827,3e-5 5.82367,0.71206 7.54624,2.13608 1.72252,1.42408 2.58379,3.54772 2.58381,6.37092 z"
         id="path4520"
         inkscape:connector-curvature="0"
         style="font-size:28px;font-style:normal;font-variant:normal;font-weight:bold;font-stretch:normal;line-height:125%;letter-spacing:0px;word-spacing:0px;fill:#ffffff;fill-opacity:1;stroke:none;font-family:Open Sans;-inkscape-font-specification:Open Sans Bold" />
      <path
         d="m 413.7376,412.66503 c 0.77108,2e-5 1.41159,0.0559 1.92153,0.1679 l -0.42908,5.33554 c -0.46019,-0.12432 -1.01986,-0.18655 -1.67901,-0.18656 -1.81584,10e-6 -3.23056,0.46641 -4.24417,1.39918 -1.01364,0.93279 -1.52046,2.23869 -1.52044,3.91769 l 0,10.61509 -5.68999,0 0,-20.85707 4.30946,0 0.83952,3.50727 0.27982,0 c 0.64673,-1.16906 1.52043,-2.11118 2.62113,-2.82633 1.10067,-0.71512 2.29775,-1.07269 3.59123,-1.07271 z"
         id="path4522"
         inkscape:connector-curvature="0"
         style="font-size:28px;font-style:normal;font-variant:normal;font-weight:bold;font-stretch:normal;line-height:125%;letter-spacing:0px;word-spacing:0px;fill:#ffffff;fill-opacity:1;stroke:none;font-family:Open Sans;-inkscape-font-specification:Open Sans Bold" />
      <path
         d="m 428.12113,416.71331 c -1.20641,2e-5 -2.15163,0.38247 -2.83566,1.14733 -0.68405,0.7649 -1.07582,1.85005 -1.17531,3.25542 l 7.98464,0 c -0.0248,-1.40537 -0.39178,-2.49052 -1.10069,-3.25542 -0.70892,-0.76486 -1.66658,-1.14731 -2.87298,-1.14733 z m 0.8022,17.57368 c -3.35803,0 -5.98226,-0.92657 -7.8727,-2.7797 -1.89045,-1.85313 -2.83567,-4.47737 -2.83567,-7.8727 0,-3.49483 0.87371,-6.19679 2.62114,-8.1059 1.7474,-1.90909 4.16331,-2.86364 7.24772,-2.86366 2.9476,2e-5 5.24223,0.83953 6.88395,2.51852 1.64169,1.67903 2.46254,3.99856 2.46256,6.95858 l 0,2.76103 -13.45075,0 c 0.0622,1.61685 0.54101,2.87921 1.43648,3.78711 0.89547,0.90792 2.15162,1.36187 3.76845,1.36187 1.25614,0 2.44389,-0.13058 3.56324,-0.39177 1.11933,-0.26117 2.28842,-0.67781 3.50727,-1.24993 l 0,4.40274 c -0.99499,0.49749 -2.05835,0.86749 -3.19012,1.11002 -1.1318,0.24253 -2.51232,0.36379 -4.14157,0.36379 z"
         id="path4524"
         inkscape:connector-curvature="0"
         style="font-size:28px;font-style:normal;font-variant:normal;font-weight:bold;font-stretch:normal;line-height:125%;letter-spacing:0px;word-spacing:0px;fill:#ffffff;fill-opacity:1;stroke:none;font-family:Open Sans;-inkscape-font-specification:Open Sans Bold" />
      <path
         d="m 456.6457,427.72019 c -10e-6,2.13919 -0.74313,3.76845 -2.22936,4.88779 -1.48625,1.11933 -3.70938,1.67901 -6.6694,1.67901 -1.51735,0 -2.8108,-0.10262 -3.88039,-0.30782 -1.0696,-0.20521 -2.07078,-0.50682 -3.00358,-0.9048 l 0,-4.70124 c 1.05716,0.49749 2.24801,0.91414 3.57258,1.24993 1.32455,0.33581 2.49052,0.50371 3.49794,0.50371 2.06455,0 3.09684,-0.59698 3.09685,-1.79095 -1e-5,-0.44773 -0.13682,-0.81151 -0.41042,-1.09137 -0.27364,-0.27982 -0.74625,-0.59697 -1.41784,-0.95143 -0.67162,-0.35445 -1.56709,-0.76798 -2.68642,-1.2406 -1.60439,-0.6716 -2.78282,-1.29345 -3.53526,-1.86557 -0.75244,-0.5721 -1.29968,-1.22815 -1.64169,-1.96818 -0.34203,-0.74 -0.51304,-1.65101 -0.51304,-2.73306 0,-1.85312 0.71824,-3.2865 2.15473,-4.30014 1.43648,-1.0136 3.47306,-1.52042 6.10974,-1.52044 2.51229,2e-5 4.95618,0.54725 7.33169,1.64171 l -1.71632,4.10424 c -1.04473,-0.44771 -2.02104,-0.8146 -2.92895,-1.10068 -0.90792,-0.28604 -1.83449,-0.42906 -2.7797,-0.42908 -1.67902,2e-5 -2.51853,0.45397 -2.51851,1.36186 -2e-5,0.50994 0.2705,0.95146 0.81153,1.32456 0.54099,0.37313 1.72563,0.92658 3.5539,1.66035 1.62925,0.6592 2.82322,1.27483 3.58189,1.84692 0.75866,0.57213 1.31832,1.23129 1.67902,1.97751 0.36066,0.74623 0.541,1.63548 0.54101,2.66777 z"
         id="path4526"
         inkscape:connector-curvature="0"
         style="font-size:28px;font-style:normal;font-variant:normal;font-weight:bold;font-stretch:normal;line-height:125%;letter-spacing:0px;word-spacing:0px;fill:#ffffff;fill-opacity:1;stroke:none;font-family:Open Sans;-inkscape-font-specification:Open Sans Bold" />
      <path
         d="m 469.76065,416.71331 c -1.2064,2e-5 -2.15162,0.38247 -2.83567,1.14733 -0.68403,0.7649 -1.0758,1.85005 -1.17529,3.25542 l 7.98463,0 c -0.0248,-1.40537 -0.39178,-2.49052 -1.10068,-3.25542 -0.70893,-0.76486 -1.6666,-1.14731 -2.87299,-1.14733 z m 0.8022,17.57368 c -3.35803,0 -5.98226,-0.92657 -7.8727,-2.7797 -1.89045,-1.85313 -2.83567,-4.47737 -2.83567,-7.8727 0,-3.49483 0.87371,-6.19679 2.62112,-8.1059 1.74742,-1.90909 4.16332,-2.86364 7.24775,-2.86366 2.94758,2e-5 5.24223,0.83953 6.88395,2.51852 1.64168,1.67903 2.46253,3.99856 2.46254,6.95858 l 0,2.76103 -13.45076,0 c 0.0622,1.61685 0.54101,2.87921 1.4365,3.78711 0.89547,0.90792 2.15161,1.36187 3.76846,1.36187 1.25613,0 2.44387,-0.13058 3.56323,-0.39177 1.11932,-0.26117 2.28841,-0.67781 3.50728,-1.24993 l 0,4.40274 c -0.995,0.49749 -2.05837,0.86749 -3.19013,1.11002 -1.13179,0.24253 -2.51232,0.36379 -4.14157,0.36379 z"
         id="path4528"
         inkscape:connector-curvature="0"
         style="font-size:28px;font-style:normal;font-variant:normal;font-weight:bold;font-stretch:normal;line-height:125%;letter-spacing:0px;word-spacing:0px;fill:#ffffff;fill-opacity:1;stroke:none;font-family:Open Sans;-inkscape-font-specification:Open Sans Bold" />
      <path
         d="m 502.98646,433.91387 -5.68999,0 0,-12.18216 c -2e-5,-1.50489 -0.26742,-2.63356 -0.80219,-3.38602 -0.53482,-0.75242 -1.38676,-1.12866 -2.55584,-1.12867 -1.59196,1e-5 -2.74239,0.53171 -3.4513,1.59507 -0.70893,1.06337 -1.06339,2.82635 -1.06337,5.28888 l 0,9.8129 -5.69,0 0,-20.85707 4.34678,0 0.76489,2.66776 0.31714,0 c 0.63429,-1.00738 1.508,-1.76915 2.62113,-2.28531 1.11311,-0.51612 2.37859,-0.7742 3.79643,-0.77422 2.42523,2e-5 4.26592,0.65607 5.52209,1.96818 1.25613,1.31214 1.8842,3.20568 1.88423,5.68066 z"
         id="path4530"
         inkscape:connector-curvature="0"
         style="font-size:28px;font-style:normal;font-variant:normal;font-weight:bold;font-stretch:normal;line-height:125%;letter-spacing:0px;word-spacing:0px;fill:#ffffff;fill-opacity:1;stroke:none;font-family:Open Sans;-inkscape-font-specification:Open Sans Bold" />
      <path
         d="m 517.66849,429.75365 c 0.99496,0 2.18892,-0.21764 3.58189,-0.65294 l 0,4.23483 c -1.41785,0.6343 -3.15904,0.95145 -5.22359,0.95145 -2.27601,0 -3.93325,-0.57522 -4.97175,-1.72565 -1.0385,-1.15044 -1.55775,-2.87609 -1.55775,-5.17697 l 0,-10.05542 -2.72373,0 0,-2.40658 3.13415,-1.90288 1.64171,-4.40274 3.63786,0 0,4.44005 5.83923,0 0,4.27215 -5.83923,0 0,10.05542 c 0,0.80843 0.22697,1.40542 0.68094,1.79095 0.45394,0.38556 1.05403,0.57833 1.80027,0.57833 z"
         id="path4532"
         inkscape:connector-curvature="0"
         style="font-size:28px;font-style:normal;font-variant:normal;font-weight:bold;font-stretch:normal;line-height:125%;letter-spacing:0px;word-spacing:0px;fill:#ffffff;fill-opacity:1;stroke:none;font-family:Open Sans;-inkscape-font-specification:Open Sans Bold" />
      <path
         d="m 538.69347,433.91387 -1.10069,-2.83567 -0.14926,0 c -0.95766,1.20641 -1.94331,2.04282 -2.95691,2.50919 -1.01365,0.4664 -2.33509,0.6996 -3.96434,0.6996 -2.00239,0 -3.5788,-0.57211 -4.72922,-1.71634 -1.15043,-1.14419 -1.72565,-2.77346 -1.72565,-4.88779 0,-2.2138 0.77421,-3.84616 2.32264,-4.89711 1.54841,-1.05093 3.88347,-1.63236 7.0052,-1.7443 l 3.61921,-0.1119 0,-0.91412 c -10e-6,-2.11429 -1.08205,-3.17145 -3.24609,-3.17147 -1.66659,2e-5 -3.62543,0.50373 -5.87655,1.51112 l -1.88423,-3.84307 c 2.40037,-1.25614 5.06191,-1.8842 7.98464,-1.88424 2.79836,4e-5 4.94375,0.60945 6.43622,1.82826 1.49244,1.21887 2.23867,3.072 2.23869,5.5594 l 0,13.8985 z m -1.67902,-9.66365 -2.20137,0.0746 c -1.65415,0.0498 -2.88543,0.34823 -3.69383,0.89547 -0.80843,0.54723 -1.21263,1.38052 -1.21263,2.49985 0,1.6044 0.92035,2.40659 2.76105,2.40659 1.31833,0 2.37237,-0.37933 3.16213,-1.138 0.78976,-0.75866 1.18464,-1.76606 1.18465,-3.02222 z"
         id="path4534"
         inkscape:connector-curvature="0"
         style="font-size:28px;font-style:normal;font-variant:normal;font-weight:bold;font-stretch:normal;line-height:125%;letter-spacing:0px;word-spacing:0px;fill:#ffffff;fill-opacity:1;stroke:none;font-family:Open Sans;-inkscape-font-specification:Open Sans Bold" />
      <path
         d="m 557.29319,429.75365 c 0.99496,0 2.18892,-0.21764 3.5819,-0.65294 l 0,4.23483 c -1.41786,0.6343 -3.15905,0.95145 -5.2236,0.95145 -2.276,0 -3.93325,-0.57522 -4.97174,-1.72565 -1.0385,-1.15044 -1.55776,-2.87609 -1.55775,-5.17697 l 0,-10.05542 -2.72374,0 0,-2.40658 3.13417,-1.90288 1.64169,-4.40274 3.63787,0 0,4.44005 5.83922,0 0,4.27215 -5.83922,0 0,10.05542 c -1e-5,0.80843 0.22696,1.40542 0.68093,1.79095 0.45395,0.38556 1.05403,0.57833 1.80027,0.57833 z"
         id="path4536"
         inkscape:connector-curvature="0"
         style="font-size:28px;font-style:normal;font-variant:normal;font-weight:bold;font-stretch:normal;line-height:125%;letter-spacing:0px;word-spacing:0px;fill:#ffffff;fill-opacity:1;stroke:none;font-family:Open Sans;-inkscape-font-specification:Open Sans Bold" />
      <path
         d="m 564.83009,407.6653 c 0,-1.8531 1.03228,-2.77967 3.09686,-2.77969 2.06455,2e-5 3.09683,0.92659 3.09684,2.77969 -10e-6,0.88307 -0.25809,1.57023 -0.77422,2.06146 -0.51615,0.4913 -1.29036,0.73692 -2.32262,0.7369 -2.06458,2e-5 -3.09686,-0.93276 -3.09686,-2.79836 z m 5.93252,26.24857 -5.68999,0 0,-20.85707 5.68999,0 z"
         id="path4538"
         inkscape:connector-curvature="0"
         style="font-size:28px;font-style:normal;font-variant:normal;font-weight:bold;font-stretch:normal;line-height:125%;letter-spacing:0px;word-spacing:0px;fill:#ffffff;fill-opacity:1;stroke:none;font-family:Open Sans;-inkscape-font-specification:Open Sans Bold" />
      <path
         d="m 581.2471,423.44803 c 0,2.06457 0.33891,3.62542 1.01674,4.68257 0.67782,1.05716 1.78162,1.58574 3.31139,1.58574 1.51732,0 2.60867,-0.52546 3.27407,-1.57641 0.66537,-1.05092 0.99807,-2.61489 0.99809,-4.6919 -2e-5,-2.06455 -0.33583,-3.61298 -1.0074,-4.64528 -0.67163,-1.03226 -1.77231,-1.5484 -3.30206,-1.54841 -1.51735,10e-6 -2.61181,0.51304 -3.28341,1.5391 -0.67162,1.02607 -1.00742,2.57759 -1.00742,4.65459 z m 14.42086,0 c -2e-5,3.39533 -0.89549,6.05067 -2.68642,7.96598 -1.79096,1.91532 -4.2846,2.87298 -7.48094,2.87298 -2.00237,0 -3.76845,-0.43841 -5.29821,-1.31523 -1.52978,-0.87682 -2.70509,-2.13608 -3.52594,-3.77777 -0.82084,-1.6417 -1.23126,-3.55702 -1.23126,-5.74596 0,-3.40777 0.88925,-6.05687 2.66776,-7.94733 1.77851,-1.89042 4.27837,-2.83565 7.49959,-2.83567 2.00237,2e-5 3.76844,0.43532 5.29823,1.3059 1.52974,0.87062 2.70504,2.12055 3.52592,3.7498 0.82084,1.62927 1.23125,3.53837 1.23127,5.7273 z"
         id="path4540"
         inkscape:connector-curvature="0"
         style="font-size:28px;font-style:normal;font-variant:normal;font-weight:bold;font-stretch:normal;line-height:125%;letter-spacing:0px;word-spacing:0px;fill:#ffffff;fill-opacity:1;stroke:none;font-family:Open Sans;-inkscape-font-specification:Open Sans Bold" />
      <path
         d="m 619.62188,433.91387 -5.68999,0 0,-12.18216 c -10e-6,-1.50489 -0.26741,-2.63356 -0.80219,-3.38602 -0.53482,-0.75242 -1.38676,-1.12866 -2.55584,-1.12867 -1.59196,1e-5 -2.74239,0.53171 -3.4513,1.59507 -0.70892,1.06337 -1.06339,2.82635 -1.06337,5.28888 l 0,9.8129 -5.68998,0 0,-20.85707 4.34676,0 0.76489,2.66776 0.31714,0 c 0.63429,-1.00738 1.508,-1.76915 2.62113,-2.28531 1.11312,-0.51612 2.37859,-0.7742 3.79645,-0.77422 2.42521,2e-5 4.2659,0.65607 5.52207,1.96818 1.25613,1.31214 1.8842,3.20568 1.88423,5.68066 z"
         id="path4542"
         inkscape:connector-curvature="0"
         style="font-size:28px;font-style:normal;font-variant:normal;font-weight:bold;font-stretch:normal;line-height:125%;letter-spacing:0px;word-spacing:0px;fill:#ffffff;fill-opacity:1;stroke:none;font-family:Open Sans;-inkscape-font-specification:Open Sans Bold" />
      <path
         d="m 647.04576,412.66503 c 2.46253,2e-5 4.39028,0.96079 5.78327,2.88231 1.39293,1.92155 2.0894,4.55512 2.08943,7.90069 -3e-5,3.44509 -0.71826,6.11285 -2.15473,8.00329 -1.43651,1.89045 -3.39225,2.83567 -5.86722,2.83567 -2.45013,0 -4.37166,-0.88925 -5.76461,-2.66776 l -0.39178,0 -0.95143,2.29464 -4.34678,0 0,-29.02826 5.68999,0 0,6.75336 c 0,0.85818 -0.0746,2.23248 -0.22387,4.12292 l 0.22387,0 c 1.33077,-2.06455 3.30205,-3.09684 5.91386,-3.09686 z m -1.82826,4.55199 c -1.40541,1e-5 -2.43148,0.43222 -3.0782,1.29658 -0.64673,0.86439 -0.98253,2.29155 -1.0074,4.28148 l 0,0.61563 c 0,2.2387 0.33269,3.84309 0.99808,4.81318 0.66538,0.9701 1.71942,1.45514 3.16214,1.45514 1.16908,0 2.09876,-0.5379 2.78903,-1.61372 0.69024,-1.0758 1.03537,-2.63978 1.03539,-4.69191 -2e-5,-2.05211 -0.34825,-3.5912 -1.04472,-4.61729 -0.6965,-1.02604 -1.64793,-1.53908 -2.85432,-1.53909 z"
         id="path4544"
         inkscape:connector-curvature="0"
         style="font-size:28px;font-style:normal;font-variant:normal;font-weight:bold;font-stretch:normal;line-height:125%;letter-spacing:0px;word-spacing:0px;fill:#ffffff;fill-opacity:1;stroke:none;font-family:Open Sans;-inkscape-font-specification:Open Sans Bold" />
      <path
         d="m 656.63479,413.0568 6.231,0 3.93634,11.73443 c 0.3358,1.01985 0.5659,2.22626 0.69027,3.61921 l 0.11189,0 c 0.13681,-1.28102 0.4042,-2.48741 0.8022,-3.61921 l 3.86173,-11.73443 6.10042,0 -8.82415,23.52484 c -0.80843,2.17649 -1.96198,3.80576 -3.46063,4.88779 -1.49869,1.08202 -3.24921,1.62304 -5.25159,1.62304 -0.98253,0 -1.9464,-0.10575 -2.89163,-0.31714 l 0,-4.51468 c 0.68404,0.16167 1.43027,0.24253 2.23869,0.24253 1.0074,0 1.88733,-0.30783 2.63978,-0.92347 0.75243,-0.61563 1.3401,-1.54532 1.76296,-2.78902 l 0.3358,-1.02607 z"
         id="path4546"
         inkscape:connector-curvature="0"
         style="font-size:28px;font-style:normal;font-variant:normal;font-weight:bold;font-stretch:normal;line-height:125%;letter-spacing:0px;word-spacing:0px;fill:#ffffff;fill-opacity:1;stroke:none;font-family:Open Sans;-inkscape-font-specification:Open Sans Bold" />
    </g>
    <g
       id="g4595"
       transform="matrix(1.1673485,0,0,1.1673485,-13.344026,-84.326804)">
      <path
         d="m 393.58972,493.45306 -8.57201,-27.9321 -0.21918,0 c 0.30845,5.68224 0.46268,9.47307 0.4627,11.37252 l 0,16.55958 -6.74559,0 0,-35.60308 10.27667,0 8.42591,27.22588 0.14605,0 8.93731,-27.22588 10.27667,0 0,35.60308 -7.03781,0 0,-16.8518 c -4e-5,-0.79549 0.0125,-1.71277 0.0365,-2.75181 0.0244,-1.03901 0.13395,-3.79894 0.32876,-8.27979 l -0.21918,0 -9.18083,27.8834 z"
         id="path4548"
         inkscape:connector-curvature="0"
         style="font-size:28px;font-style:normal;font-variant:normal;font-weight:bold;font-stretch:normal;line-height:125%;letter-spacing:0px;word-spacing:0px;fill:#ffffff;fill-opacity:1;stroke:none;font-family:Open Sans;-inkscape-font-specification:Open Sans Bold" />
      <path
         d="m 424.66327,459.18935 c 0,-2.41895 1.34749,-3.62846 4.04248,-3.62849 2.69499,3e-5 4.04248,1.20954 4.04248,3.62849 0,1.15272 -0.33688,2.0497 -1.01061,2.69093 -0.67376,0.64132 -1.68438,0.96195 -3.03187,0.96192 -2.69499,3e-5 -4.04248,-1.21757 -4.04248,-3.65285 z m 7.74404,34.26371 -7.42745,0 0,-27.22589 7.42745,0 z"
         id="path4550"
         inkscape:connector-curvature="0"
         style="font-size:28px;font-style:normal;font-variant:normal;font-weight:bold;font-stretch:normal;line-height:125%;letter-spacing:0px;word-spacing:0px;fill:#ffffff;fill-opacity:1;stroke:none;font-family:Open Sans;-inkscape-font-specification:Open Sans Bold" />
      <path
         d="m 447.31093,478.64686 3.23884,-4.1399 7.62228,-8.27979 8.37721,0 -10.81244,11.81087 11.46995,15.41502 -8.57202,0 -7.84145,-11.0316 -3.19015,2.557 0,8.4746 -7.42745,0 0,-37.8922 7.42745,0 0,16.9005 -0.38963,6.1855 z"
         id="path4552"
         inkscape:connector-curvature="0"
         style="font-size:28px;font-style:normal;font-variant:normal;font-weight:bold;font-stretch:normal;line-height:125%;letter-spacing:0px;word-spacing:0px;fill:#ffffff;fill-opacity:1;stroke:none;font-family:Open Sans;-inkscape-font-specification:Open Sans Bold" />
      <path
         d="m 482.42696,471.00023 c -1.57479,2e-5 -2.80865,0.49925 -3.70156,1.49766 -0.89291,0.99847 -1.40431,2.41497 -1.53418,4.24948 l 10.42278,0 c -0.0324,-1.83451 -0.51141,-3.25101 -1.43678,-4.24948 -0.9254,-0.99841 -2.1755,-1.49764 -3.75026,-1.49766 z m 1.04715,22.93988 c -4.38342,0 -7.80899,-1.2095 -10.27667,-3.62849 -2.46771,-2.41899 -3.70157,-5.84456 -3.70157,-10.27668 0,-4.56198 1.14051,-8.089 3.42151,-10.58108 2.281,-2.49204 5.43461,-3.73805 9.46088,-3.73809 3.84764,4e-5 6.84297,1.09588 8.986,3.28757 2.14298,2.19173 3.21448,5.21954 3.2145,9.08342 l 0,3.60413 -17.55802,0 c 0.0812,2.11056 0.70621,3.75838 1.87514,4.94352 1.16889,1.18515 2.80861,1.77772 4.91917,1.77772 1.6397,0 3.19012,-0.17046 4.65128,-0.5114 1.46111,-0.34092 2.98719,-0.88479 4.57824,-1.63159 l 0,5.74714 c -1.29881,0.64939 -2.6869,1.13238 -4.16424,1.44897 -1.4774,0.31657 -3.27947,0.47486 -5.40622,0.47486 z"
         id="path4554"
         inkscape:connector-curvature="0"
         style="font-size:28px;font-style:normal;font-variant:normal;font-weight:bold;font-stretch:normal;line-height:125%;letter-spacing:0px;word-spacing:0px;fill:#ffffff;fill-opacity:1;stroke:none;font-family:Open Sans;-inkscape-font-specification:Open Sans Bold" />
      <path
         d="m 543.74608,475.31058 c -3e-5,5.8608 -1.66816,10.34974 -5.0044,13.46684 -3.33629,3.11709 -8.15398,4.67564 -14.4531,4.67564 l -10.08184,0 0,-35.60308 11.17771,0 c 5.81206,4e-5 10.32535,1.53424 13.53988,4.60258 3.21447,3.06844 4.82172,7.35443 4.82175,12.85802 z m -7.84143,0.19483 c -4e-5,-7.64661 -3.37689,-11.46992 -10.13057,-11.46995 l -4.01813,0 0,23.18341 3.23886,0 c 7.2732,0 10.9098,-3.90447 10.90984,-11.71346 z"
         id="path4556"
         inkscape:connector-curvature="0"
         style="font-size:28px;font-style:normal;font-variant:normal;font-weight:bold;font-stretch:normal;line-height:125%;letter-spacing:0px;word-spacing:0px;fill:#ffffff;fill-opacity:1;stroke:none;font-family:Open Sans;-inkscape-font-specification:Open Sans Bold" />
      <path
         d="m 550.2238,459.18935 c 0,-2.41895 1.3475,-3.62846 4.04248,-3.62849 2.69499,3e-5 4.04249,1.20954 4.04249,3.62849 0,1.15272 -0.33688,2.0497 -1.01062,2.69093 -0.67376,0.64132 -1.68437,0.96195 -3.03187,0.96192 -2.69498,3e-5 -4.04248,-1.21757 -4.04248,-3.65285 z m 7.74404,34.26371 -7.42747,0 0,-27.22589 7.42747,0 z"
         id="path4558"
         inkscape:connector-curvature="0"
         style="font-size:28px;font-style:normal;font-variant:normal;font-weight:bold;font-stretch:normal;line-height:125%;letter-spacing:0px;word-spacing:0px;fill:#ffffff;fill-opacity:1;stroke:none;font-family:Open Sans;-inkscape-font-specification:Open Sans Bold" />
      <path
         d="m 573.16369,493.45306 -7.42747,0 0,-37.8922 7.42747,0 z"
         id="path4560"
         inkscape:connector-curvature="0"
         style="font-size:28px;font-style:normal;font-variant:normal;font-weight:bold;font-stretch:normal;line-height:125%;letter-spacing:0px;word-spacing:0px;fill:#ffffff;fill-opacity:1;stroke:none;font-family:Open Sans;-inkscape-font-specification:Open Sans Bold" />
      <path
         d="m 588.35953,493.45306 -7.42747,0 0,-37.8922 7.42747,0 z"
         id="path4562"
         inkscape:connector-curvature="0"
         style="font-size:28px;font-style:normal;font-variant:normal;font-weight:bold;font-stretch:normal;line-height:125%;letter-spacing:0px;word-spacing:0px;fill:#ffffff;fill-opacity:1;stroke:none;font-family:Open Sans;-inkscape-font-specification:Open Sans Bold" />
      <path
         d="m 595.81133,459.18935 c 0,-2.41895 1.3475,-3.62846 4.04249,-3.62849 2.69498,3e-5 4.04248,1.20954 4.04248,3.62849 0,1.15272 -0.33688,2.0497 -1.01062,2.69093 -0.67375,0.64132 -1.68437,0.96195 -3.03186,0.96192 -2.69499,3e-5 -4.04249,-1.21757 -4.04249,-3.65285 z m 7.74405,34.26371 -7.42747,0 0,-27.22589 7.42747,0 z"
         id="path4564"
         inkscape:connector-curvature="0"
         style="font-size:28px;font-style:normal;font-variant:normal;font-weight:bold;font-stretch:normal;line-height:125%;letter-spacing:0px;word-spacing:0px;fill:#ffffff;fill-opacity:1;stroke:none;font-family:Open Sans;-inkscape-font-specification:Open Sans Bold" />
      <path
         d="m 617.24137,479.79142 c -2e-5,2.695 0.4424,4.73246 1.32721,6.11243 0.88477,1.37996 2.32562,2.06995 4.32252,2.06995 1.98064,0 3.40526,-0.68593 4.27384,-2.05779 0.86855,-1.37182 1.30282,-3.41336 1.30284,-6.12459 -2e-5,-2.69497 -0.43835,-4.71622 -1.31502,-6.06373 -0.87671,-1.34748 -2.3135,-2.02122 -4.31036,-2.02124 -1.98067,2e-5 -3.40934,0.6697 -4.28601,2.00907 -0.87669,1.33939 -1.31504,3.36468 -1.31502,6.0759 z m 18.82434,0 c -4e-5,4.43212 -1.16895,7.89827 -3.50673,10.39844 -2.33784,2.50017 -5.59295,3.75025 -9.76528,3.75025 -2.61384,0 -4.91919,-0.57228 -6.91607,-1.71684 -1.99688,-1.14456 -3.53108,-2.78834 -4.60258,-4.93133 -1.0715,-2.143 -1.60726,-4.64318 -1.60724,-7.50052 -2e-5,-4.44835 1.16078,-7.90636 3.48236,-10.37409 2.3216,-2.46767 5.58479,-3.70152 9.78964,-3.70156 2.6138,4e-5 4.91915,0.56826 6.91606,1.70468 1.99686,1.13646 3.53106,2.76807 4.60258,4.8948 1.07147,2.12679 1.60722,4.61884 1.60726,7.47617 z"
         id="path4566"
         inkscape:connector-curvature="0"
         style="font-size:28px;font-style:normal;font-variant:normal;font-weight:bold;font-stretch:normal;line-height:125%;letter-spacing:0px;word-spacing:0px;fill:#ffffff;fill-opacity:1;stroke:none;font-family:Open Sans;-inkscape-font-specification:Open Sans Bold" />
      <path
         d="m 667.33408,493.45306 -7.42747,0 0,-15.90205 c -10e-6,-1.96441 -0.34906,-3.43773 -1.04714,-4.41995 -0.69811,-0.98219 -1.8102,-1.4733 -3.33626,-1.47332 -2.07809,2e-5 -3.57981,0.69406 -4.50518,2.08213 -0.92541,1.38809 -1.38809,3.6894 -1.38809,6.90387 l 0,12.80932 -7.42745,0 0,-27.22589 5.67409,0 0.99843,3.48238 0.41401,0 c 0.82795,-1.315 1.96845,-2.30937 3.4215,-2.98315 1.453,-0.67372 3.1049,-1.01059 4.95569,-1.01063 3.16577,4e-5 5.56854,0.85642 7.20829,2.56918 1.63968,1.7128 2.45955,4.18455 2.45958,7.41527 z"
         id="path4568"
         inkscape:connector-curvature="0"
         style="font-size:28px;font-style:normal;font-variant:normal;font-weight:bold;font-stretch:normal;line-height:125%;letter-spacing:0px;word-spacing:0px;fill:#ffffff;fill-opacity:1;stroke:none;font-family:Open Sans;-inkscape-font-specification:Open Sans Bold" />
    </g>
  </g>
  <g
     inkscape:groupmode="layer"
     id="layer4"
     inkscape:label="octocat"
     style="display:none">
    <path
       id="path4481"
       d="m 486.8499,172.91835 c 5.40657,12.27871 8.90844,32.66656 3.68055,47.59939 21.37277,18.2435 28.72004,62.60557 18.40283,98.85433 30.45711,2.32719 66.7405,-1.11372 90.15924,8.23244 -21.89359,-2.8134 -51.79523,-8.33632 -80.03043,-6.41361 -5.35115,0.36291 -13.27745,-0.20365 -12.8882,7.32232 32.68733,2.56823 65.16827,5.36223 92.00715,13.73598 -26.61587,-4.34965 -58.93057,-10.9669 -92.00715,-11.89361 -13.66392,26.96355 -41.16357,40.2119 -79.12308,43.00454 4.0795,8.87796 11.89498,12.25931 13.80938,26.54383 2.8425,21.33673 -4.45907,52.59035 2.74414,66.81114 3.45616,6.81258 9.08711,6.99681 12.8882,12.82032 -9.29906,11.00431 -32.34656,-1.23145 -34.97158,-12.82032 -4.49646,-19.84622 6.84997,-50.615 -5.516,-64.06699 0.87546,21.64426 -5.11427,52.04871 0.92257,71.38795 2.38261,7.60632 9.24919,10.53885 7.36389,17.39712 -43.21372,4.38843 -25.16135,-55.93291 -32.21913,-91.52922 -6.5175,0.46127 -3.65699,9.76312 -3.67363,13.73043 -0.19123,34.76932 7.11317,82.4504 -30.36013,77.79879 -1.10128,-7.30292 5.02701,-9.78943 7.35558,-16.46624 6.84029,-19.56225 -1.27996,-48.70893 1.85759,-72.31883 -14.30392,10.78265 1.49882,48.42771 -7.36252,67.72538 -5.10874,11.10957 -21.55973,15.94264 -34.04207,10.98489 1.62349,-8.27398 10.17038,-6.93583 13.78998,-14.6419 5.06166,-10.74662 0.036,-26.21829 1.85068,-42.09998 -26.4801,5.28189 -47.01203,-0.76604 -57.05634,-17.39435 -4.4937,-7.46364 -5.61297,-16.26542 -11.04723,-22.87852 -5.40381,-6.61725 -14.04348,-7.50518 -16.55076,-16.46763 32.78706,-7.88891 34.04209,33.73871 63.49213,34.77211 9.02478,0.32552 13.71657,-2.6084 22.07505,-4.5685 2.33552,-10.50146 7.3459,-18.32664 14.71812,-23.81076 -36.63387,-5.01593 -66.89288,-16.42195 -80.96407,-43.91326 -33.31069,1.64011 -63.7872,6.08809 -92.01686,12.80233 25.62128,-9.3074 57.22674,-12.64303 91.09706,-13.73598 -1.99474,-11.99612 -19.49301,-8.6965 -30.36014,-8.23104 -20.18699,0.8893 -45.60185,3.39936 -61.6484,6.41361 23.26636,-8.29615 55.90106,-7.25862 87.4151,-7.32372 -9.63984,-30.21886 -6.30003,-78.22548 14.71949,-96.10466 -5.95649,-15.01039 -4.10723,-39.56641 3.68055,-51.25917 23.46583,1.05417 37.69909,11.28827 52.4449,21.0583 18.28232,-5.20292 37.50795,-7.78914 62.55988,-6.41224 10.54022,0.58597 21.49881,5.31931 29.43066,4.5699 7.78916,-0.72726 16.37206,-9.46531 23.92572,-12.80372 9.85456,-4.34545 18.18533,-6.00496 29.44728,-6.41085"
       inkscape:connector-curvature="0"
       style="fill:#ffffff" />
  </g>
  <g
     inkscape:groupmode="layer"
     id="layer3"
     inkscape:label="branch">
    <path
       id="path4441"
       d="m 341.5714,169.23807 c -30.66197,0 -55.5714,24.89601 -55.5714,55.57143 0,20.50022 11.23366,38.23229 27.78573,47.87873 v 7.69273 c 0,0 0,55.5714 -55.57145,55.5714 -23.03697,0 -41.09508,4.93848 -55.57144,12.50879 V 217.11678 c 16.56549,-9.64639 27.78572,-27.37847 27.78572,-47.87871 0,-30.67542 -24.896,-55.57141 -55.57145,-55.57141 -30.67541,0 -55.57141,24.89599 -55.57141,55.57141 0,20.50024 11.22021,38.23232 27.78574,47.87871 v 182.1132 c -16.56553,9.63295 -27.78574,27.35158 -27.78574,47.86527 0,30.66194 24.896,55.57141 55.57141,55.57141 30.67545,0 55.57145,-24.90947 55.57145,-55.57141 0,-14.54413 -5.72557,-27.6772 -14.86971,-37.60842 8.08607,-9.93121 21.23263,-17.96303 42.65543,-17.96303 110.27455,0 111.14286,-111.14284 111.14286,-111.14284 v -7.69273 c 16.55203,-9.64644 27.78572,-27.37851 27.78572,-47.87873 0,-30.67542 -24.90949,-55.57143 -55.57146,-55.57143 z m -166.71429,-27.7857 c 15.3716,0 27.78573,12.41414 27.78573,27.7857 0,15.37158 -12.41413,27.78573 -27.78573,27.78573 -15.37155,0 -27.78567,-12.41415 -27.78567,-27.78573 0,-15.37156 12.41412,-27.7857 27.78567,-27.7857 z m 0,333.42856 c -15.37155,0 -27.78567,-12.42758 -27.78567,-27.78568 0,-15.33078 12.41412,-27.78572 27.78567,-27.78572 15.3716,0 27.78573,12.45494 27.78573,27.78572 0,15.3581 -12.41413,27.78568 -27.78573,27.78568 z M 341.5714,252.59523 c -15.3581,0 -27.78567,-12.41414 -27.78567,-27.78573 0,-15.37158 12.42757,-27.7857 27.78567,-27.7857 15.35814,0 27.78574,12.41412 27.78574,27.7857 0,15.37159 -12.4276,27.78573 -27.78574,27.78573 z"
       inkscape:connector-curvature="0"
       style="fill:#34495e;fill-opacity:1" />
  </g>
</svg>
